<svg width="61" height="61" viewBox="0 0 61 61" fill="none" xmlns="http://www.w3.org/2000/svg">
<path d="M54.9 52.3313H18.9422L16.3735 22.7939H57.4687L54.9 52.3313Z" fill="#AF7AAE"/>
<path d="M57.4686 20.2264V22.7951L57.2458 25.3638H16.5974L16.3746 22.7951V20.2264H57.4686Z" fill="#8E5B8E"/>
<path d="M60.0373 17.6578V20.2265C60.0373 21.6454 58.8876 22.7951 57.4687 22.7951H16.3735C14.9545 22.7951 13.8048 21.6454 13.8048 20.2265V17.6578C13.8048 16.2388 14.9545 15.0891 16.3735 15.0891H57.4687C58.8864 15.0891 60.0373 16.2388 60.0373 17.6578Z" fill="#D199D1"/>
<path d="M56.1843 51.0469C56.1843 53.1748 54.4592 54.8999 52.3313 54.8999H44.4061C44.5479 55.3014 44.6265 55.7339 44.6265 56.1843C44.6265 58.3121 42.9013 60.0373 40.7735 60.0373H4.81565C2.6878 60.0373 0.962646 58.3121 0.962646 56.1843C0.962646 54.0564 2.6878 52.3312 4.81565 52.3312H12.7409C12.5991 51.9297 12.5205 51.4973 12.5205 51.0469C12.5205 48.9191 14.2456 47.1939 16.3735 47.1939H52.3313C54.4592 47.1951 56.1843 48.9203 56.1843 51.0469ZM45.6571 18.9302C46.2206 18.985 46.7496 18.8539 47.194 18.5966V24.0187C47.194 25.4114 48.277 26.5981 49.6685 26.6469C51.1292 26.6993 52.3301 25.5294 52.3301 24.0806V15.0915C52.3301 14.3826 51.7547 13.8071 51.0458 13.8071H48.4771H47.1928H44.6241C43.9152 13.8071 43.3398 14.3826 43.3398 15.0915V16.3174C43.3422 17.647 44.3322 18.8003 45.6571 18.9302Z" fill="#A7E5CB"/>
<path d="M21.5109 51.047C21.5109 51.7559 20.9354 52.3314 20.2265 52.3314H16.3735C15.6647 52.3314 15.0892 51.7559 15.0892 51.047C15.0892 50.3381 15.6647 49.7627 16.3735 49.7627H20.2265C20.9354 49.7627 21.5109 50.3381 21.5109 51.047ZM15.0892 54.9H4.81571C4.10682 54.9 3.53137 55.4755 3.53137 56.1844C3.53137 56.8933 4.10682 57.4687 4.81571 57.4687H15.0892C15.7981 57.4687 16.3735 56.8933 16.3735 56.1844C16.3735 55.4755 15.7993 54.9 15.0892 54.9Z" fill="#D7F3FF"/>
<path d="M42.0579 44.6265H49.7627C55.4374 44.6265 60.0362 49.2266 60.0362 54.9V58.753C60.0362 59.4619 59.4608 60.0374 58.7519 60.0374H34.3519C28.6772 60.0374 24.0784 55.4374 24.0784 49.7639V40.7747C24.0784 39.3558 25.2281 38.2061 26.647 38.2061H36.9205C38.3395 38.2061 39.4892 39.3558 39.4892 40.7747V42.0591C39.4892 43.4768 40.6389 44.6265 42.0579 44.6265Z" fill="#A89B80"/>
<path d="M60.0374 54.9V60.0374H39.4892C33.8145 60.0374 29.2157 55.4374 29.2157 49.7639V40.7747C29.2157 39.3558 30.3654 38.2061 31.7844 38.2061H36.9217C38.3407 38.2061 39.4904 39.3558 39.4904 40.7747V42.0591C39.4904 43.478 40.6401 44.6277 42.0591 44.6277H47.1964H49.7651C55.4374 44.6265 60.0374 49.2254 60.0374 54.9Z" fill="#C1B291"/>
<path d="M60.0374 54.9V60.0373H44.6265C38.9519 60.0373 34.353 55.4373 34.353 49.7638V44.6265C34.353 50.3011 38.953 54.9 44.6265 54.9H60.0374Z" fill="#A89B80"/>
<path d="M58.6589 49.7627H44.6265C38.9519 49.7627 34.353 45.1626 34.353 39.4892V38.2048H36.9217C38.3407 38.2048 39.4904 39.3545 39.4904 40.7735V42.0578C39.4904 43.4768 40.6401 44.6265 42.059 44.6265H49.7639C53.5656 44.6265 56.8825 46.6936 58.6589 49.7627Z" fill="#DBCBA1"/>
<path d="M34.353 3.53132V31.7843V34.353H29.2157V31.7843V3.53132C29.2157 2.11235 30.3654 0.962646 31.7844 0.962646C33.2021 0.962646 34.353 2.11354 34.353 3.53132Z" fill="#91F18B"/>
<path d="M31.7844 3.53132V34.353H29.2157V3.53132C29.2157 2.11235 30.3654 0.962646 31.7844 0.962646C32.2526 0.962646 32.691 1.09013 33.0687 1.30935C32.3014 1.75374 31.7844 2.58177 31.7844 3.53132Z" fill="#6BAF6E"/>
<path d="M40.7735 36.9204C40.7735 38.3394 39.6237 39.4891 38.2048 39.4891H25.3626C23.9437 39.4891 22.7939 38.3394 22.7939 36.9204C22.7939 35.5015 23.9437 34.3518 25.3626 34.3518H27.9313V33.0674C27.9313 32.3585 28.5067 31.7831 29.2156 31.7831H34.353C35.0619 31.7831 35.6373 32.3585 35.6373 33.0674V34.3518H38.206C39.6237 34.3529 40.7735 35.5027 40.7735 36.9204Z" fill="#FFC248"/>
<path d="M40.7735 36.9205H22.7952C22.7952 35.5015 23.9449 34.3518 25.3638 34.3518H38.206C39.6238 34.353 40.7735 35.5027 40.7735 36.9205Z" fill="#FFFF63"/>
<path d="M26.3265 60.0373C26.3265 60.5699 25.8952 61 25.3638 61H4.81566C2.16002 61 0 58.84 0 56.1843C0 53.5287 2.16002 51.3687 4.81566 51.3687H11.2814C11.3541 51.3687 11.4172 51.3425 11.4685 51.2912C11.5018 51.2579 11.5578 51.1828 11.5578 51.0649V51.0482C11.5578 48.3925 13.7179 46.2325 16.3735 46.2325H20.2265C20.7579 46.2325 21.1892 46.6638 21.1892 47.1952C21.1892 47.7265 20.7579 48.1578 20.2265 48.1578H16.3735C14.7806 48.1578 13.4843 49.4541 13.4843 51.047V51.0601C13.4867 51.6606 13.2556 52.2265 12.8326 52.6494C12.4192 53.0652 11.8676 53.294 11.2814 53.294H4.81566C3.22275 53.294 1.9265 54.5902 1.9265 56.1831C1.9265 57.7761 3.22275 59.0723 4.81566 59.0723H25.3627C25.8952 59.0735 26.3265 59.5048 26.3265 60.0373ZM43.3422 23.7578C43.8735 23.7578 44.3048 23.3265 44.3048 22.7952C44.3048 22.2638 43.8735 21.8325 43.3422 21.8325H38.2048C37.6735 21.8325 37.2422 22.2638 37.2422 22.7952C37.2422 23.3265 37.6735 23.7578 38.2048 23.7578H43.3422ZM59.5167 49.3242C60.4603 50.9684 61 52.8722 61 54.9V58.753C61 59.9921 59.9921 61 58.753 61H34.353C28.1565 61 23.1157 55.9592 23.1157 49.7627V40.7735C23.1157 40.4292 23.1657 40.0872 23.2646 39.7596C22.3961 39.1151 21.8325 38.0833 21.8325 36.9205C21.8325 34.9737 23.4171 33.3892 25.3638 33.3892H26.9687V33.0675C26.9687 32.1727 27.4941 31.3983 28.253 31.0373V23.7578H17.4243L19.1197 43.2588C19.1662 43.7889 18.7742 44.256 18.244 44.3013C17.7138 44.3501 17.2468 43.9557 17.2003 43.4256L15.4799 23.6435C13.9633 23.2467 12.841 21.8647 12.841 20.2265V17.6578C12.841 15.7111 14.4255 14.1265 16.3723 14.1265H28.2518V3.53133C28.253 1.58457 29.8364 0 31.7843 0C33.7323 0 35.3157 1.58457 35.3157 3.53133V31.0373C36.0746 31.3983 36.6 32.1727 36.6 33.0675V33.3892H38.2048C40.1528 33.3892 41.7362 34.9737 41.7362 36.9205C41.7362 38.0821 41.1726 39.1151 40.3041 39.7596C40.4018 40.0872 40.453 40.4292 40.453 40.7735V42.0578C40.453 42.943 41.1726 43.6627 42.0578 43.6627H49.7627C53.8956 43.6627 57.5151 45.9061 59.4667 49.2384C59.4845 49.2658 59.5012 49.2944 59.5167 49.3242ZM30.1783 30.8217H33.3892V3.53133C33.3892 2.64611 32.6696 1.9265 31.7843 1.9265C30.8991 1.9265 30.1795 2.64611 30.1795 3.53133L30.1783 30.8217ZM28.253 21.8313V16.0518H16.3735C15.4883 16.0518 14.7687 16.7714 14.7687 17.6566V20.2253C14.7687 21.1081 15.4847 21.8266 16.3663 21.8301C16.3723 21.8301 16.3783 21.8301 16.3842 21.8301L28.253 21.8313ZM59.0735 55.8627H44.6265C42.7214 55.8627 40.8378 55.3766 39.1818 54.458C38.7171 54.1995 38.5491 53.6133 38.8065 53.1486C39.065 52.684 39.6512 52.5148 40.1158 52.7733C41.4871 53.5346 43.0467 53.9361 44.6265 53.9361H59.0247C58.9067 52.7924 58.5803 51.7094 58.0846 50.7253H44.6265C42.7214 50.7253 40.8378 50.2392 39.1818 49.3195C38.7171 49.0609 38.5491 48.4747 38.8065 48.0101C39.065 47.5454 39.6512 47.3775 40.1158 47.6348C41.4871 48.3961 43.0467 48.7988 44.6265 48.7988H56.792C55.0835 46.833 52.566 45.588 49.7638 45.588H42.059C40.1111 45.588 38.5277 44.0034 38.5277 42.0566V40.7723C38.5277 40.6603 38.5158 40.5483 38.4931 40.4399C38.399 40.4482 38.3025 40.4518 38.2072 40.4518H36.9229C36.3915 40.4518 35.9602 40.0205 35.9602 39.4892C35.9602 38.9578 36.3915 38.5265 36.9229 38.5265H38.2072C39.0924 38.5265 39.812 37.8069 39.812 36.9217C39.812 36.0365 39.0924 35.3169 38.2072 35.3169H35.6385C35.1072 35.3169 34.6759 34.8856 34.6759 34.3542V33.0699C34.6759 32.8923 34.5317 32.7482 34.3542 32.7482H29.2169C29.0393 32.7482 28.8952 32.8923 28.8952 33.0699V34.3542C28.8952 34.8868 28.4639 35.3169 27.9325 35.3169H25.3638C24.4786 35.3169 23.759 36.0365 23.759 36.9217C23.759 37.8069 24.4786 38.5265 25.3638 38.5265H33.0687C33.6 38.5265 34.0313 38.9578 34.0313 39.4892C34.0313 40.0205 33.6 40.4518 33.0687 40.4518H25.3638C25.2673 40.4518 25.172 40.4482 25.0779 40.4399C25.0553 40.5483 25.0434 40.6603 25.0434 40.7723V49.7615C25.0434 54.4628 28.5461 58.3622 33.0794 58.9853C30.1652 56.9528 28.2542 53.5764 28.2542 49.7615V43.341C28.2542 42.8084 28.6855 42.3783 29.2169 42.3783C29.7482 42.3783 30.1795 42.8096 30.1795 43.341V49.7615C30.1795 54.4628 33.6822 58.3622 38.2155 58.9853C35.3014 56.9528 33.3904 53.5764 33.3904 49.7615V43.341C33.3904 42.8084 33.8216 42.3783 34.353 42.3783C34.8844 42.3783 35.3157 42.8096 35.3157 43.341V49.7615C35.3157 54.8952 39.4927 59.0723 44.6265 59.0723H58.753C58.9293 59.0723 59.0747 58.9281 59.0747 58.7506L59.0735 55.8627ZM61 17.6578V20.2265C61 21.8659 59.8777 23.2467 58.361 23.6435L56.6406 43.4256C56.5978 43.9271 56.176 44.306 55.6828 44.306C55.6553 44.306 55.6268 44.3048 55.5982 44.3024C55.068 44.256 54.676 43.7889 54.7225 43.26L56.4179 23.759H53.2952V24.0807C53.2952 25.0481 52.9115 25.95 52.2158 26.622C51.52 27.2939 50.6014 27.6418 49.6352 27.6096C47.7265 27.5417 46.2313 25.9643 46.2313 24.0188V19.8917C46.0109 19.912 45.7881 19.9108 45.5641 19.8893C43.7484 19.713 42.3795 18.1761 42.3795 16.3163V16.0542H38.206C37.6746 16.0542 37.2434 15.6229 37.2434 15.0915C37.2434 14.5602 37.6746 14.1289 38.206 14.1289H42.5963C42.9573 13.37 43.7318 12.8446 44.6265 12.8446H51.047C51.9417 12.8446 52.7162 13.37 53.0771 14.1289H57.4675C59.4154 14.1265 61 15.7111 61 17.6578ZM51.3687 15.0892C51.3687 14.9116 51.2245 14.7687 51.047 14.7687H44.6265C44.4502 14.7687 44.3048 14.9128 44.3048 15.0892V16.3151C44.3048 17.1646 44.9398 17.8925 45.75 17.9712C46.086 18.0045 46.4184 17.9319 46.7115 17.7627C46.8604 17.6757 47.0272 17.6328 47.194 17.6328C47.3596 17.6328 47.5264 17.6757 47.6753 17.7615C47.9732 17.933 48.1578 18.2512 48.1578 18.5955V24.0176C48.1578 24.9063 48.8512 25.6534 49.7043 25.6831C50.1463 25.6963 50.5621 25.539 50.8778 25.234C51.1947 24.929 51.3687 24.518 51.3687 24.0783V15.0892ZM59.0735 17.6578C59.0735 16.7726 58.3539 16.053 57.4687 16.053H53.2952V21.8325H57.4579C57.4639 21.8325 57.4699 21.8325 57.4758 21.8325C58.3575 21.8289 59.0735 21.1105 59.0735 20.2277V17.6578Z" fill="black"/>
</svg>
