<svg width="56" height="50" viewBox="0 0 56 50" fill="none" xmlns="http://www.w3.org/2000/svg">
<path d="M49.4684 38.2976H5.85059C3.20672 38.2976 1.06311 36.154 1.06311 33.5101V5.85059C1.06311 3.20672 3.20672 1.06311 5.85059 1.06311H49.4673C52.1111 1.06311 54.2548 3.20672 54.2548 5.85059V33.5101C54.2548 36.1551 52.1122 38.2976 49.4684 38.2976Z" fill="#FFFDE7"/>
<path d="M35.2411 15.4851L25.4619 13.228L27.719 23.0072L30.351 20.3741L33.36 23.3832L35.6171 21.1261L32.608 18.1171L35.2411 15.4851Z" fill="#FB8C00"/>
<path d="M36.1702 48.9357H19.1488L21.2762 38.2976H34.0428L36.1702 48.9357Z" fill="#FB8C00"/>
<path d="M1.06421 29.787V33.5102C1.06421 36.1541 3.20782 38.2977 5.85168 38.2977H49.4684C52.1122 38.2977 54.2559 36.1541 54.2559 33.5102V29.787H1.06421Z" fill="#FFECB3"/>
<path d="M49.4684 0H5.85064C2.62441 0 0 2.62441 0 5.85064V29.7869V33.5102C0 36.7364 2.62441 39.3608 5.85064 39.3608H19.9786L18.2769 47.8715H12.7655C12.1778 47.8715 11.7013 48.348 11.7013 48.9358C11.7013 49.5235 12.1778 50 12.7655 50H19.1488H36.1702H42.5535C43.1413 50 43.6178 49.5235 43.6178 48.9358C43.6178 48.348 43.1413 47.8715 42.5535 47.8715H37.0422L35.3405 39.3608H49.4684C52.6946 39.3608 55.3191 36.7364 55.3191 33.5102V29.7869V5.85064C55.3191 2.62441 52.6946 0 49.4684 0ZM5.85064 2.12741H49.4673C51.5202 2.12741 53.1906 3.79778 53.1906 5.85064V28.7227H2.12741V26.5953H8.51071C9.09847 26.5953 9.57495 26.1188 9.57495 25.531C9.57495 24.9433 9.09847 24.4668 8.51071 24.4668H2.12741V5.85064C2.12741 3.79778 3.79778 2.12741 5.85064 2.12741ZM34.8726 47.8726H20.4464L22.1482 39.3619H33.1698L34.8726 47.8726ZM53.1917 33.5102C53.1917 35.563 51.5213 37.2334 49.4684 37.2334H34.0428H21.2762H5.85064C3.79778 37.2334 2.12741 35.563 2.12741 33.5102V30.8512H53.1906L53.1917 33.5102Z" fill="black"/>
<path d="M27.6595 36.1702C28.8329 36.1702 29.7869 35.2162 29.7869 34.0428C29.7869 32.8694 28.8329 31.9154 27.6595 31.9154C26.4861 31.9154 25.5321 32.8694 25.5321 34.0428C25.5321 35.2162 26.4861 36.1702 27.6595 36.1702Z" fill="black"/>
<path d="M26.6817 23.2459C26.7682 23.6229 27.0534 23.9222 27.4251 24.0292C27.7968 24.1361 28.1965 24.0324 28.471 23.7591L30.3509 21.878L32.608 24.1351C32.8154 24.3425 33.0877 24.4462 33.36 24.4462C33.6323 24.4462 33.9045 24.3425 34.112 24.1351L36.369 21.878C36.785 21.462 36.785 20.7889 36.369 20.3729L34.112 18.1159L35.993 16.2359C36.2664 15.9625 36.3701 15.5617 36.2632 15.19C36.1562 14.8183 35.8569 14.5342 35.4798 14.4467L25.7007 12.1896C25.343 12.1075 24.9692 12.2145 24.7088 12.4738C24.4495 12.7331 24.3415 13.108 24.4247 13.4656L26.6817 23.2459ZM33.1309 16.09L31.8549 17.366C31.4389 17.782 31.4389 18.4551 31.8549 18.8711L34.112 21.1282L33.36 21.8802L31.1029 19.6231C30.8955 19.4157 30.6232 19.3119 30.3509 19.3119C30.0787 19.3119 29.8064 19.4157 29.5989 19.6231L28.3229 20.8991L26.8805 14.6487L33.1309 16.09Z" fill="black"/>
<path d="M21.7765 11.0465C21.9839 11.2539 22.2562 11.3576 22.5285 11.3576C22.8007 11.3576 23.073 11.2539 23.2805 11.0465C23.6964 10.6305 23.6964 9.95736 23.2805 9.54138L22.2162 8.47714C21.8002 8.06117 21.1271 8.06117 20.7111 8.47714C20.2952 8.89311 20.2952 9.56624 20.7111 9.98221L21.7765 11.0465Z" fill="black"/>
<path d="M19.7021 14.5494H21.206C21.7938 14.5494 22.2703 14.0729 22.2703 13.4851C22.2703 12.8974 21.7938 12.4209 21.206 12.4209H19.7021C19.1143 12.4209 18.6378 12.8974 18.6378 13.4851C18.6378 14.074 19.1143 14.5494 19.7021 14.5494Z" fill="black"/>
<path d="M21.7765 15.9247L20.7122 16.9889C20.2963 17.4049 20.2963 18.078 20.7122 18.494C20.9197 18.7015 21.192 18.8052 21.4642 18.8052C21.7365 18.8052 22.0088 18.7015 22.2162 18.494L23.2805 17.4298C23.6965 17.0138 23.6965 16.3407 23.2805 15.9247C22.8656 15.5098 22.1914 15.5098 21.7765 15.9247Z" fill="black"/>
<path d="M28.9118 11.3587C29.184 11.3587 29.4563 11.255 29.6637 11.0476L30.728 9.98331C31.144 9.56733 31.144 8.89421 30.728 8.47824C30.312 8.06227 29.6389 8.06227 29.224 8.47824L28.1598 9.54248C27.7438 9.95846 27.7438 10.6316 28.1598 11.0476C28.3672 11.255 28.6395 11.3587 28.9118 11.3587Z" fill="black"/>
<path d="M25.7201 10.0363C26.3079 10.0363 26.7844 9.5598 26.7844 8.97204V7.46805C26.7844 6.88029 26.3079 6.40381 25.7201 6.40381C25.1324 6.40381 24.6559 6.88029 24.6559 7.46805V8.97204C24.6559 9.5598 25.1324 10.0363 25.7201 10.0363Z" fill="black"/>
<path d="M10.7203 25.9383C10.7473 26.0032 10.7797 26.0647 10.8186 26.122C10.8564 26.1804 10.9018 26.2344 10.9504 26.2841C10.9991 26.3338 11.0542 26.3781 11.1125 26.4159C11.1698 26.4537 11.2314 26.4872 11.2962 26.5142C11.3599 26.5412 11.4269 26.5618 11.495 26.5758C11.563 26.5898 11.6333 26.5963 11.7024 26.5963C11.7716 26.5963 11.8418 26.5898 11.9099 26.5758C11.9779 26.5618 12.0449 26.5401 12.1087 26.5142C12.1735 26.4872 12.2351 26.4548 12.2924 26.4159C12.3507 26.3781 12.4047 26.3327 12.4544 26.2841C12.5041 26.2355 12.5484 26.1814 12.5862 26.122C12.6241 26.0647 12.6575 26.0032 12.6846 25.9383C12.7116 25.8746 12.7321 25.8076 12.7451 25.7395C12.7591 25.6715 12.7667 25.6012 12.7667 25.5321C12.7667 25.4629 12.7591 25.3927 12.7451 25.3246C12.7321 25.2566 12.7105 25.1896 12.6846 25.1248C12.6575 25.061 12.6251 24.9994 12.5862 24.9422C12.5484 24.8838 12.503 24.8298 12.4544 24.7801C12.4058 24.7315 12.3507 24.6861 12.2924 24.6483C12.2351 24.6105 12.1735 24.577 12.1087 24.55C12.0449 24.5229 11.9779 24.5024 11.9099 24.4895C11.7727 24.4614 11.6322 24.4614 11.495 24.4895C11.4269 24.5024 11.3599 24.524 11.2962 24.55C11.2314 24.577 11.1698 24.6094 11.1125 24.6483C11.0542 24.6861 11.0001 24.7315 10.9504 24.7801C10.9018 24.8287 10.8564 24.8838 10.8186 24.9422C10.7808 24.9994 10.7473 25.061 10.7203 25.1248C10.6933 25.1896 10.6728 25.2566 10.6598 25.3246C10.6457 25.3927 10.6382 25.4629 10.6382 25.5321C10.6382 25.6012 10.6457 25.6715 10.6598 25.7395C10.6728 25.8076 10.6933 25.8746 10.7203 25.9383Z" fill="black"/>
</svg>
