<svg width="50" height="67" viewBox="0 0 50 67" fill="none" xmlns="http://www.w3.org/2000/svg">
<path d="M14.3955 14.3797C15.1179 14.3797 15.7043 13.7933 15.7043 13.0709C15.7043 12.347 15.1179 11.7621 14.3955 11.7621C13.673 11.7621 13.0881 12.347 13.0881 13.0709C13.0867 13.7933 13.673 14.3797 14.3955 14.3797Z" fill="#634618"/>
<path d="M49.1985 23.7425C50.157 22.063 49.7849 19.9377 48.3154 18.6883L43.8837 14.9255C43.6391 14.717 43.4711 14.4231 43.4147 14.1003L42.4114 8.41484C42.0755 6.49798 40.4322 5.10812 38.5024 5.10812H32.717C32.4029 5.10812 32.0959 4.99519 31.8643 4.79685L27.4312 0.951551C27.4283 0.948656 27.424 0.94576 27.4196 0.941417C25.9385 -0.313806 23.7871 -0.313806 22.3075 0.941417C22.3032 0.944313 22.3003 0.948656 22.2959 0.951551L17.8744 4.78671C17.6326 4.9923 17.3257 5.10667 17.013 5.10667H11.2262C9.29779 5.10667 7.65312 6.49798 7.31723 8.41195L6.31248 14.1017C6.25601 14.4231 6.09097 14.7156 5.84484 14.924L1.41175 18.6883C-0.0577437 19.9377 -0.428375 22.063 0.528606 23.7425L3.42126 28.814C3.58342 29.0978 3.64133 29.4322 3.58486 29.7551L2.58011 35.5216C2.24712 37.4355 3.31847 39.3061 5.12675 39.972L10.5631 41.9758C10.6717 42.0163 10.7731 42.0699 10.8672 42.135L0.790654 59.808C0.215886 60.8157 1.14536 62.0202 2.26594 61.7205L8.1526 60.1439L9.72923 66.0291C10.0304 67.1526 11.5491 67.3582 12.1296 66.339L22.5305 48.1028L24.4053 47.4122C24.7007 47.3036 25.0264 47.3036 25.3203 47.4122L27.3371 48.1549L38.4966 66.3751C39.0959 67.3524 40.5785 67.1425 40.8767 66.0306L42.4548 60.1454L48.34 61.722C49.4765 62.0275 50.4118 60.7824 49.795 59.7747L38.9526 42.0757C39.0192 42.0366 39.0902 42.0033 39.1625 41.9772L44.5975 39.9735C46.4087 39.3075 47.48 37.4355 47.1456 35.523L46.1408 29.7565C46.0844 29.4351 46.1423 29.1007 46.3044 28.8155L49.1985 23.7425ZM11.4333 62.2779L10.3416 58.2024C10.1549 57.5046 9.43678 57.0906 8.73895 57.2773L4.61858 58.382L12.4511 44.6426L14.1667 47.6496C15.0875 49.2653 16.971 50.0138 18.7228 49.4955L11.4333 62.2779ZM45.8498 58.3443L41.867 57.2773C41.1677 57.0906 40.4511 57.5046 40.2643 58.2024L39.1365 62.4097L31.2693 49.565C31.553 49.6273 31.8397 49.6591 32.1234 49.6591C33.5104 49.6591 34.8337 48.9236 35.559 47.6496L37.3615 44.4891L45.8498 58.3443ZM44.0314 27.5183C43.5681 28.3305 43.4016 29.2845 43.5623 30.2053L44.5671 35.9733C44.6844 36.6393 44.3166 37.2893 43.6941 37.5181L38.2591 39.5203C37.4455 39.82 36.752 40.3847 36.2844 41.1187C36.2308 41.1882 36.1859 41.2635 36.1468 41.3416L33.286 46.3567C32.9574 46.9329 32.274 47.1863 31.6616 46.9605C31.4893 46.8968 26.3627 45.0074 26.2238 44.9567C25.3464 44.6353 24.3793 44.6339 23.5019 44.9567C23.3962 44.9944 21.0769 45.85 18.0655 46.9605C17.4517 47.1863 16.7683 46.9315 16.4397 46.3553L13.7483 41.637C13.686 41.3909 13.5543 41.1621 13.3588 40.984C12.8941 40.3152 12.2339 39.8012 11.4695 39.5203L6.03305 37.5166C5.41196 37.2879 5.04422 36.6378 5.16005 35.9718L6.1648 30.2053C6.32551 29.2845 6.15901 28.3305 5.69572 27.5183L2.80306 22.4467C2.46718 21.8603 2.59603 21.1191 3.1071 20.6848L7.53874 16.9205C8.2496 16.3168 8.72882 15.4757 8.88952 14.5563L9.89428 8.86655C10.0101 8.20491 10.5704 7.72425 11.2248 7.72425H17.0115C17.9454 7.72425 18.8531 7.38982 19.577 6.77306L24.0029 2.93645C24.5023 2.5166 25.2233 2.5166 25.7214 2.93645L30.1574 6.78175C30.8726 7.38982 31.7803 7.72425 32.7141 7.72425H38.4995C39.1553 7.72425 39.7141 8.20491 39.83 8.868L40.8333 14.5563C40.9954 15.4785 41.4761 16.3183 42.1855 16.922L46.6171 20.6848C47.1282 21.1191 47.2571 21.8618 46.9226 22.4481L44.0314 27.5183Z" fill="#634618"/>
<path d="M24.8644 7.81836C22.6117 7.81836 20.4226 8.25269 18.3552 9.10833C17.6878 9.38485 17.3707 10.1507 17.6473 10.8182C17.9238 11.4856 18.6897 11.8026 19.3571 11.5261C21.1031 10.8022 22.9563 10.4345 24.8644 10.4345C32.8011 10.4345 39.2582 16.8916 39.2582 24.8283C39.2582 32.765 32.8011 39.2221 24.8644 39.2221C16.9277 39.2221 10.4706 32.765 10.4706 24.8283C10.4706 22.3671 11.1033 19.9363 12.2992 17.8008C12.6524 17.171 12.428 16.3733 11.7968 16.02C11.1656 15.6668 10.3693 15.8912 10.016 16.5224C8.60155 19.0473 7.85449 21.9197 7.85449 24.8297C7.85449 34.2099 15.4857 41.8411 24.8659 41.8411C34.246 41.8411 41.8773 34.2099 41.8773 24.8297C41.8744 15.4496 34.2431 7.81836 24.8644 7.81836Z" fill="#634618"/>
<path d="M19.7247 26.5179L18.9588 30.9785C18.8748 31.4693 19.0761 31.9659 19.48 32.2583C19.8782 32.5479 20.4124 32.5927 20.8583 32.3582L24.8643 30.2517L28.8703 32.3582C29.3104 32.5898 29.8446 32.5508 30.2486 32.2583C30.6511 31.9659 30.8538 31.4693 30.7683 30.9785L30.0025 26.5179L33.2426 23.3588C33.5987 23.0113 33.7276 22.4916 33.5741 22.0182C33.4192 21.5448 33.0109 21.1987 32.5172 21.1278L28.0378 20.4777L26.0355 16.4196C25.814 15.9723 25.3594 15.6899 24.8614 15.6899C24.3634 15.6899 23.9088 15.9737 23.6873 16.4196L21.685 20.4777L17.2056 21.1278C16.7119 21.2002 16.3021 21.5448 16.1487 22.0182C15.9952 22.4916 16.1226 23.0113 16.4802 23.3588L19.7247 26.5179ZM22.7448 22.9665C23.1704 22.9042 23.5396 22.6364 23.7307 22.2513L24.8643 19.9536L25.9979 22.2513C26.1876 22.6378 26.5567 22.9057 26.9824 22.9665L29.5189 23.3357L27.6831 25.1237C27.3747 25.4248 27.2343 25.8577 27.3067 26.2819L27.7396 28.8068L25.4709 27.6153C25.2798 27.5154 25.0713 27.4647 24.8614 27.4647C24.6515 27.4647 24.443 27.5154 24.2519 27.6153L21.9832 28.8068L22.4161 26.2819C22.4885 25.8577 22.3481 25.4248 22.0397 25.1237L20.2039 23.3357L22.7448 22.9665Z" fill="#634618"/>
</svg>
