<svg width="50" height="67" viewBox="0 0 50 67" fill="none" xmlns="http://www.w3.org/2000/svg">
<path d="M37.3193 41.9132C37.3167 41.9171 37.3154 41.9198 37.3128 41.9237L28.2126 47.0763L39.6091 65.6821L41.5246 58.5329L48.6739 60.4484L37.3193 41.9132Z" fill="#2BBDC4"/>
<path d="M12.45 41.9971L1.92761 60.4485L9.07687 58.533L10.9924 65.6822L21.6286 47.0319L12.45 41.9971Z" fill="#2BBDC4"/>
<path d="M21.6273 47.0319L18.5146 48.1794C17.3016 48.6256 15.9461 48.127 15.3011 46.9953L12.4487 41.9958L12.4081 41.9238C12.0954 41.3756 11.6021 40.9569 11.0146 40.741L5.57942 38.7378C4.36651 38.2916 3.64556 37.0263 3.86931 35.7402L4.87418 29.9739C4.98278 29.3511 4.87025 28.7087 4.55754 28.1604L1.6646 23.089C1.01955 21.9585 1.27077 20.5205 2.25863 19.6805L6.69028 15.9175C7.16916 15.5105 7.49104 14.9453 7.59964 14.3225L8.60451 8.63474C8.82956 7.34855 9.93387 6.41041 11.224 6.41041H17.0099C17.6353 6.41041 18.2398 6.18667 18.7187 5.77974L23.1503 1.93689C24.1395 1.09819 25.5814 1.09819 26.5706 1.93689L31.0022 5.77974C31.4811 6.18667 32.0869 6.41041 32.7123 6.41041H38.4969C39.787 6.41041 40.8913 7.34855 41.1164 8.63474L42.1199 14.3225C42.2298 14.9453 42.5517 15.5105 43.0306 15.9175L47.4622 19.6805C48.4501 20.5205 48.7013 21.9585 48.0563 23.089L45.1633 28.1604C44.8506 28.7087 44.7381 29.3511 44.8467 29.9739L45.8516 35.7402C46.0766 37.0263 45.3557 38.2916 44.1414 38.7378L38.7062 40.741C38.1227 40.9555 37.632 41.3703 37.3193 41.9133C37.3167 41.9172 37.3154 41.9199 37.3128 41.9238L34.4198 46.9953C33.7748 48.127 32.4192 48.6256 31.2063 48.1794L28.2126 47.0764L25.7698 46.1762C25.1823 45.9603 24.5386 45.9603 23.9511 46.1762L21.6273 47.0319Z" fill="#FFD86E"/>
<path d="M32.3264 22.4177L28.5935 26.0564L29.4754 31.1946L24.8605 28.7688L20.2457 31.1946L21.1276 26.0564L17.3947 22.4177L22.5538 21.6679L24.8605 16.9929L27.1673 21.6679L32.3264 22.4177Z" fill="#2BBDC4"/>
<path d="M14.393 14.376C15.1153 14.376 15.7015 13.7898 15.7015 13.0676C15.7015 12.344 15.1153 11.7592 14.393 11.7592C13.6708 11.7592 13.0846 12.344 13.0846 13.0676C13.0859 13.7898 13.6721 14.376 14.393 14.376Z" fill="black"/>
<path d="M49.1933 23.7392C50.1511 22.0604 49.7795 19.9355 48.3101 18.6847L43.8785 14.9217C43.6325 14.7136 43.4663 14.4192 43.4087 14.096L42.4052 8.41091C42.0702 6.49406 40.4255 5.10451 38.4969 5.10451H32.7123C32.3983 5.10451 32.0921 4.99067 31.8592 4.7931L27.4289 0.950247C27.425 0.94763 27.421 0.943704 27.4171 0.941088C25.936 -0.313696 23.7862 -0.313696 22.3051 0.941088C22.3012 0.945013 22.2972 0.94763 22.2933 0.950247L17.8721 4.78394C17.6301 4.98937 17.3239 5.1032 17.0099 5.1032H11.2253C9.29669 5.1032 7.6533 6.49406 7.31703 8.40829L6.31216 14.0986C6.2559 14.4205 6.08973 14.7123 5.84505 14.9203L1.4121 18.6847C-0.0572703 19.9342 -0.428864 22.0591 0.528906 23.7378L3.42184 28.8093C3.58409 29.0932 3.64166 29.4269 3.5854 29.7501L2.58052 35.5163C2.24818 37.4292 3.31848 39.3016 5.12673 39.9663L10.5632 41.9695C10.6718 42.0087 10.7739 42.0624 10.8668 42.1291L0.790591 59.8008C0.216191 60.8083 1.14518 62.0133 2.26519 61.7124L8.1505 60.1357L9.72716 66.021C10.0281 67.145 11.5459 67.3504 12.1268 66.3311L22.5262 48.0969L24.4012 47.406C24.6956 47.2974 25.0214 47.2974 25.3158 47.406L27.3321 48.1492L38.4904 66.3678C39.0896 67.3452 40.5721 67.1345 40.8704 66.0223L42.447 60.137L48.3324 61.7137C49.4694 62.0199 50.4036 60.7742 49.7873 59.7667L38.9457 42.0702C39.0124 42.031 39.0831 41.9983 39.1563 41.9708L44.5903 39.9676C46.4011 39.3016 47.4727 37.4306 47.1378 35.5176L46.1329 29.7514C46.0766 29.4295 46.1355 29.0946 46.2964 28.8106L49.1933 23.7392ZM11.432 62.2698L10.3408 58.1953C10.1537 57.4966 9.43669 57.0832 8.73799 57.2703L4.61775 58.3746L12.45 44.6387L14.1654 47.6455C15.0865 49.2614 16.9693 50.0098 18.7213 49.4903L11.432 62.2698ZM45.845 58.3366L41.8635 57.269C41.1648 57.0818 40.4478 57.4966 40.2607 58.194L39.1341 62.4006L31.2678 49.5571C31.5518 49.6199 31.8383 49.6513 32.1209 49.6513C33.5065 49.6513 34.8307 48.9159 35.5569 47.6428L37.3599 44.483L45.845 58.3366ZM44.0276 27.514C43.5644 28.3252 43.3983 29.2803 43.5579 30.2002L44.5628 35.9664C44.6792 36.6324 44.3129 37.2814 43.6887 37.5104L38.2548 39.5136C37.441 39.8132 36.7475 40.3784 36.2804 41.1112C36.2268 41.1805 36.181 41.2551 36.143 41.3336L33.2828 46.3475C32.9544 46.9232 32.2714 47.177 31.659 46.952C31.4876 46.8892 26.3599 44.9998 26.2212 44.9488C25.3446 44.6269 24.3776 44.6269 23.4997 44.9488C23.395 44.9867 21.0752 45.8411 18.0645 46.952C17.4508 47.1783 16.7678 46.9232 16.4394 46.3475L13.748 41.6306C13.6865 41.3846 13.5543 41.1557 13.3581 40.979C12.8936 40.3104 12.2328 39.7962 11.4687 39.5149L6.03216 37.5104C5.41065 37.2814 5.04299 36.6324 5.15944 35.9651L6.16431 30.1989C6.32525 29.2777 6.15908 28.3239 5.69589 27.5127L2.80296 22.4412C2.468 21.855 2.59622 21.1131 3.10651 20.6787L7.53816 16.9157C8.24864 16.3125 8.72883 15.4712 8.88846 14.5514L9.89333 8.86232C10.0098 8.20156 10.5685 7.72006 11.224 7.72006H17.0099C17.9428 7.72006 18.8508 7.38641 19.5757 6.76883L24.0008 2.93252C24.4993 2.51382 25.2203 2.51382 25.7201 2.93252L30.1544 6.77799C30.8688 7.3851 31.7768 7.72006 32.711 7.72006H38.4956C39.1511 7.72006 39.7111 8.20025 39.8263 8.86362L40.8298 14.5514C40.9921 15.4738 41.4723 16.3138 42.1814 16.9157L46.6118 20.6774C47.1234 21.1118 47.2516 21.8537 46.9166 22.4412L44.0276 27.514Z" fill="black"/>
<path d="M24.8605 7.81689C22.6087 7.81689 20.4184 8.25129 18.3524 9.10701C17.6851 9.38308 17.3685 10.1485 17.6445 10.8171C17.9219 11.4844 18.6874 11.8011 19.3547 11.525C21.1014 10.8001 22.9541 10.4338 24.8605 10.4338C32.7962 10.4338 39.2532 16.8895 39.2532 24.8265C39.2532 32.7634 32.7975 39.2192 24.8605 39.2192C16.9236 39.2192 10.4678 32.7634 10.4678 24.8265C10.4678 22.3653 11.0998 19.9356 12.2957 17.8002C12.649 17.1695 12.4239 16.3727 11.7932 16.0194C11.1626 15.6662 10.3658 15.8912 10.0125 16.5219C8.59806 19.0471 7.85095 21.9191 7.85095 24.8278C7.85095 34.2066 15.4817 41.8374 24.8605 41.8374C34.2393 41.8374 41.8701 34.2066 41.8701 24.8278C41.8701 15.4463 34.2393 7.81689 24.8605 7.81689Z" fill="black"/>
<path d="M19.7223 26.5131L18.9569 30.9736C18.8731 31.4642 19.0746 31.9601 19.4776 32.2532C19.8754 32.5424 20.4092 32.5869 20.8554 32.3526L24.8605 30.2474L28.8669 32.3526C29.3078 32.5842 29.8417 32.5463 30.2447 32.2532C30.6477 31.9601 30.8492 31.4642 30.7654 30.9736L30 26.5131L33.241 23.3546C33.5982 23.0065 33.7264 22.4871 33.572 22.0134C33.4176 21.5398 33.0081 21.1944 32.5161 21.1224L28.0374 20.4721L26.0355 16.4147C25.8143 15.9685 25.3603 15.6846 24.8618 15.6846C24.3633 15.6846 23.908 15.9672 23.6881 16.4147L21.6863 20.4721L17.2075 21.1224C16.7142 21.1944 16.3047 21.5398 16.1516 22.0134C15.9985 22.4871 16.1254 23.0065 16.4826 23.3546L19.7223 26.5131ZM22.7422 22.9621C23.1687 22.9006 23.5364 22.6323 23.7274 22.2463L24.8605 19.95L25.9936 22.2463C26.1833 22.6323 26.5523 22.9006 26.9788 22.9621L29.5146 23.331L27.6802 25.1197C27.3714 25.4206 27.2314 25.8537 27.3033 26.2776L27.7364 28.8029L25.4689 27.6109C25.2779 27.5101 25.0698 27.4604 24.8605 27.4604C24.6511 27.4604 24.4418 27.5101 24.2521 27.6109L21.9846 28.8029L22.4177 26.2776C22.4909 25.8537 22.3496 25.4206 22.0408 25.1197L20.2064 23.331L22.7422 22.9621Z" fill="black"/>
</svg>
