<svg width="111" height="88" viewBox="0 0 111 88" fill="none" xmlns="http://www.w3.org/2000/svg">
<path d="M69.5714 23.8025C69.5714 23.816 69.5714 23.8296 69.5714 23.8432H68.3786L69.6256 23.9651H69.6798L69.6934 23.9109V23.8974C69.6527 23.8838 69.612 23.8432 69.5714 23.8025Z" fill="white"/>
<path d="M26.6296 25.4968C26.7109 25.3477 26.8193 25.2121 26.9278 25.063C27.0498 24.9275 27.1717 24.7919 27.3073 24.6564C27.5784 24.3988 27.8766 24.1548 28.2019 23.9515C28.8525 23.5313 29.571 23.2195 30.33 23.0704C30.7096 22.9891 31.1027 22.9484 31.4957 22.962C31.8888 22.9756 32.2819 23.0298 32.6615 23.1247C33.041 23.2195 33.4205 23.3686 33.7865 23.5449C34.139 23.7346 34.4778 23.9515 34.8031 24.1955C34.5049 23.9108 34.1932 23.6533 33.8543 23.4229C33.5154 23.1924 33.1359 23.0027 32.7428 22.8671C32.3497 22.718 31.9431 22.6231 31.5229 22.5689C31.1027 22.5147 30.6825 22.5147 30.2487 22.5554C29.3947 22.6367 28.5679 22.8942 27.7953 23.2738C27.4157 23.4635 27.0362 23.694 26.6973 23.9651C26.5211 24.1006 26.3585 24.2497 26.1822 24.3988C26.0196 24.5615 25.8705 24.7241 25.7214 24.9139C25.5452 25.1579 25.5994 25.4832 25.8298 25.6594C26.0738 25.8356 26.3991 25.7814 26.5753 25.551C26.616 25.5374 26.616 25.5239 26.6296 25.4968Z" fill="white"/>
<path d="M31.2924 22.7588C30.9671 22.7317 30.6282 22.7317 30.2894 22.7723C29.4896 22.8401 28.6899 23.0841 27.9173 23.4636C27.5377 23.6534 27.1853 23.8703 26.8464 24.1278C26.6973 24.2362 26.5482 24.3718 26.3585 24.548C26.1822 24.7107 26.0467 24.8733 25.9247 25.0495C25.8705 25.1173 25.8569 25.1986 25.8569 25.2935C25.8705 25.3749 25.9111 25.4562 25.9789 25.4968C25.9925 25.5104 25.9925 25.5104 26.006 25.5104C26.1551 25.5917 26.3313 25.5646 26.4262 25.4291C26.4398 25.4155 26.4398 25.402 26.4533 25.402C26.5347 25.2529 26.6431 25.1038 26.7787 24.9411C26.8871 24.8055 27.0226 24.6564 27.1853 24.5209C27.47 24.2498 27.7817 24.0058 28.107 23.7889C28.7983 23.3416 29.5439 23.0299 30.3029 22.8808C30.6282 22.7994 30.9671 22.7723 31.2924 22.7588Z" fill="white"/>
<path d="M27.6733 30.3629C27.6733 30.3764 27.6733 30.3629 27.6733 30.3629L27.6597 30.3358L27.6462 30.3086C27.6326 30.2815 27.6191 30.2544 27.6191 30.2409C27.6055 30.1867 27.5784 30.1324 27.5648 30.0918C27.5377 29.9833 27.4971 29.8749 27.4835 29.7665C27.4293 29.5496 27.4022 29.3191 27.3751 29.0887C27.3344 28.6278 27.348 28.167 27.4428 27.7061C27.4835 27.4757 27.5513 27.2588 27.6191 27.0284C27.7004 26.8115 27.7817 26.5946 27.8902 26.3777C28.107 25.9575 28.3781 25.5509 28.7034 25.1849C29.0152 24.8189 29.3812 24.4936 29.7743 24.2225C30.1809 23.965 30.6282 23.7616 31.1027 23.6397C31.3466 23.5854 31.5771 23.5448 31.8346 23.5177C32.0786 23.5041 32.3362 23.4905 32.5801 23.5177C33.0817 23.5583 33.5696 23.6668 34.0576 23.8023C33.5968 23.599 33.1088 23.4499 32.6073 23.3686C32.3497 23.3279 32.0922 23.3008 31.8346 23.3008C31.5771 23.3008 31.3195 23.3143 31.062 23.355C30.5469 23.4228 30.0318 23.599 29.571 23.843C29.1101 24.087 28.6763 24.4123 28.2968 24.7783C27.9173 25.1442 27.5784 25.5509 27.2802 25.9982C27.1311 26.2286 27.0091 26.4591 26.8871 26.7166C26.7787 26.9606 26.6838 27.2181 26.6024 27.4892C26.4533 28.0179 26.372 28.5601 26.3585 29.1158C26.3585 29.3869 26.372 29.6716 26.4127 29.9427C26.4262 30.0782 26.4533 30.2138 26.4805 30.3629C26.494 30.4306 26.5076 30.4984 26.5347 30.5662C26.5482 30.6069 26.5482 30.634 26.5618 30.6746L26.5753 30.7288L26.5889 30.756L26.6024 30.7966C26.7244 31.0948 27.0633 31.2575 27.3751 31.1355C27.6462 31.0135 27.7953 30.6746 27.6733 30.3629Z" fill="white"/>
<path d="M29.8285 23.9515C29.7607 23.9786 29.7065 24.0193 29.6387 24.0464C29.205 24.2769 28.7983 24.5751 28.4052 24.941C28.0257 25.307 27.7004 25.7001 27.4157 26.1203C27.2666 26.3508 27.1446 26.5812 27.0362 26.8116C26.9278 27.0556 26.8329 27.2996 26.7651 27.5436C26.616 28.0451 26.5347 28.5737 26.5347 29.1159C26.5347 29.387 26.5482 29.6581 26.5889 29.9157C26.6024 30.0512 26.6296 30.1868 26.6567 30.3223C26.6702 30.3901 26.6838 30.4579 26.6973 30.5257C26.7109 30.5528 26.7109 30.5934 26.7244 30.6205L26.7515 30.7019L26.7651 30.729C26.7922 30.7967 26.8464 30.8645 26.9142 30.9052C27.0226 30.973 27.1311 30.973 27.2531 30.9323C27.4428 30.8645 27.5377 30.6476 27.47 30.4579L27.4428 30.3901L27.4157 30.3223C27.3886 30.2546 27.3751 30.2003 27.3615 30.1461C27.3344 30.0377 27.2937 29.9157 27.2666 29.8072C27.2124 29.5904 27.1718 29.3464 27.1582 29.1024C27.1175 28.6144 27.1311 28.14 27.226 27.6656C27.2666 27.4351 27.3344 27.1912 27.4157 26.9607C27.4971 26.7438 27.592 26.5134 27.7004 26.283C27.9173 25.8628 28.2155 25.429 28.5272 25.0495C28.8661 24.6564 29.2456 24.3175 29.6523 24.0464C29.7201 24.0193 29.7743 23.9786 29.8285 23.9515Z" fill="white"/>
<path d="M30.8045 32.5995C30.6689 32.5317 30.5334 32.4233 30.4114 32.3013L30.3165 32.2064C30.2894 32.1793 30.2487 32.1386 30.2216 32.1115C30.1538 32.0437 30.0996 31.976 30.0318 31.9082C29.7878 31.6235 29.571 31.3118 29.3947 30.9729C29.0152 30.3087 28.7712 29.5632 28.6763 28.7906C28.5815 28.0179 28.6628 27.2182 28.9339 26.4727C29.0694 26.0932 29.2456 25.7407 29.4625 25.3883C29.6794 25.0494 29.9369 24.7241 30.208 24.4259C29.8963 24.697 29.6116 24.9817 29.3405 25.307C29.083 25.6323 28.8526 25.9847 28.6628 26.3507C28.2832 27.1098 28.0935 27.9637 28.0799 28.8177C28.0799 29.6852 28.2561 30.5391 28.595 31.3524C28.7577 31.7591 28.961 32.1522 29.205 32.5317C29.4625 32.9113 29.7336 33.2637 30.1538 33.5754C30.4114 33.7788 30.7909 33.7245 30.9807 33.467C31.184 33.2095 31.1298 32.8299 30.8722 32.6402C30.8587 32.6402 30.8316 32.6266 30.8045 32.5995Z" fill="white"/>
<path d="M28.4866 27.4351C28.3646 27.8824 28.2968 28.3568 28.2968 28.8312C28.2968 29.6581 28.4595 30.4713 28.7848 31.2846C28.961 31.7048 29.1508 32.0708 29.3812 32.4097C29.5981 32.7215 29.8692 33.0874 30.2758 33.4128C30.2894 33.4263 30.3029 33.4399 30.3165 33.4399C30.4791 33.5347 30.696 33.4941 30.818 33.345C30.8858 33.2637 30.9129 33.1688 30.8993 33.0603C30.8858 32.9519 30.8316 32.8706 30.7502 32.8028C30.7367 32.7892 30.7231 32.7757 30.7096 32.7757L30.6825 32.7486C30.5605 32.6808 30.4249 32.5724 30.2758 32.4504L30.1674 32.3555C30.1403 32.3284 30.1267 32.3148 30.0996 32.2877L30.0725 32.2606C30.0183 32.2064 29.9776 32.1522 29.9234 32.1115L29.8692 32.0573C29.6252 31.7726 29.4083 31.4473 29.205 31.0813C28.8119 30.3629 28.5543 29.5903 28.4595 28.8177C28.4052 28.3568 28.4188 27.8959 28.4866 27.4351Z" fill="white"/>
<path d="M25.7892 28.7634C25.7892 28.7634 25.7892 28.7498 25.7756 28.7363C25.7756 28.7227 25.7756 28.7092 25.762 28.6956C25.762 28.6685 25.7485 28.6279 25.7485 28.6007C25.7485 28.5736 25.7485 28.533 25.7485 28.5059C25.7485 28.4787 25.7485 28.4381 25.7485 28.3974V28.289L25.762 28.1805C25.762 28.1128 25.7756 28.0314 25.7892 27.9637C25.8298 27.679 25.9247 27.3944 26.0331 27.1097L26.128 26.9064C26.1551 26.8386 26.1958 26.7708 26.2365 26.7031C26.3042 26.5675 26.3856 26.432 26.4805 26.31C26.5211 26.2422 26.5753 26.188 26.616 26.1202L26.7515 25.9304C26.8464 25.8084 26.9549 25.6864 27.0633 25.5645C26.9413 25.6593 26.8058 25.7542 26.6838 25.8491L26.494 25.9982C26.4262 26.0524 26.372 26.1066 26.3178 26.1609C26.2094 26.2693 26.0738 26.3777 25.9789 26.5133C25.9247 26.5811 25.8705 26.6353 25.8163 26.7031L25.6672 26.9064C25.4638 27.1775 25.3012 27.4757 25.1656 27.7875C25.1385 27.8688 25.0979 27.9501 25.0707 28.0314L25.0301 28.1534L25.003 28.289C24.9894 28.3296 24.9759 28.3703 24.9759 28.4245C24.9623 28.4652 24.9487 28.5194 24.9487 28.5601C24.9352 28.6007 24.9352 28.655 24.9352 28.7092C24.9352 28.7363 24.9352 28.7634 24.9352 28.777C24.9352 28.8041 24.9352 28.8312 24.9352 28.8718C24.9623 29.1158 25.1792 29.292 25.4232 29.2649C25.64 29.2243 25.8163 29.0074 25.7892 28.7634Z" fill="white"/>
<path d="M25.8163 27.0285C25.6129 27.3131 25.4638 27.5842 25.3418 27.8689L25.3283 27.896C25.3012 27.9638 25.2741 28.018 25.2605 28.0858L25.2198 28.2213L25.1927 28.3433C25.1792 28.384 25.1656 28.4246 25.1656 28.4653L25.1521 28.4924C25.1521 28.5195 25.1385 28.5466 25.1385 28.5873V28.6144C25.1385 28.6415 25.125 28.6822 25.125 28.7093V28.7771V28.8042C25.125 28.8177 25.125 28.8313 25.125 28.8584C25.1385 28.9126 25.1792 28.9804 25.2334 29.021C25.2741 29.0481 25.3283 29.0617 25.3825 29.0481C25.4503 29.0346 25.4909 29.0075 25.5316 28.9668C25.5587 28.9262 25.5858 28.8719 25.5858 28.8177V28.8042C25.5858 28.7906 25.5723 28.7771 25.5723 28.7499C25.5587 28.7228 25.5587 28.6822 25.5587 28.6551C25.5587 28.6144 25.5452 28.5737 25.5452 28.5466C25.5452 28.4788 25.5452 28.4382 25.5452 28.3975V28.3026L25.5587 28.1806C25.5587 28.1264 25.5723 28.0586 25.5858 27.9909V27.9502C25.6265 27.6656 25.7214 27.3538 25.8434 27.042L25.884 26.9471L25.8163 27.0285Z" fill="white"/>
<path d="M30.2623 28.1399C30.1538 27.8553 30.0725 27.5571 30.0318 27.2453C29.9912 26.9336 29.9912 26.6218 30.0183 26.31C30.0589 25.9983 30.1267 25.673 30.2216 25.3612C30.3165 25.0494 30.4385 24.7241 30.5605 24.4124C30.3707 24.6835 30.1809 24.9681 30.0183 25.2663C29.8556 25.5645 29.693 25.8763 29.5845 26.2152C29.4761 26.554 29.3947 26.9064 29.3541 27.2589C29.327 27.6249 29.327 27.9908 29.3812 28.3433C29.4083 28.5873 29.6387 28.7635 29.8827 28.7228C30.1267 28.6957 30.3029 28.4653 30.2623 28.2213C30.2894 28.2077 30.2758 28.1806 30.2623 28.1399Z" fill="white"/>
<path d="M29.8014 26.2829C29.693 26.6082 29.6116 26.9471 29.5845 27.2859C29.5574 27.6112 29.5574 27.9637 29.6116 28.3297C29.6252 28.3974 29.6658 28.4652 29.7201 28.5059C29.7607 28.533 29.8149 28.5465 29.8692 28.533C29.9912 28.5194 30.086 28.3974 30.0725 28.2754C30.0725 28.2619 30.0589 28.2483 30.0589 28.2212C29.9505 27.9095 29.8692 27.5977 29.8285 27.2859C29.7878 26.9606 29.7878 26.6353 29.8149 26.2964C29.8149 26.2693 29.8285 26.2287 29.8285 26.188C29.8285 26.2151 29.8149 26.2558 29.8014 26.2829Z" fill="white"/>
<path d="M69.9103 21.4709C69.8425 21.4302 69.7611 21.4031 69.6798 21.3489C69.7069 21.8233 69.7205 22.2977 69.6934 22.7721C69.7611 22.8128 69.8154 22.867 69.8831 22.9077C69.9509 22.4604 69.9916 21.9995 70.0051 21.5386C69.978 21.5251 69.9374 21.498 69.9103 21.4709Z" fill="white"/>
<path d="M62.8617 20.4679C62.9702 20.4273 63.065 20.3866 63.1735 20.346C63.9054 20.0749 64.7187 19.8986 65.5862 19.8309C66.4402 19.7631 67.2535 19.8038 68.0803 19.9258C68.5005 19.9935 68.9207 20.0884 69.3138 20.2104C69.7205 20.3324 70.1136 20.4951 70.4931 20.6713C71.2657 21.0373 71.9706 21.5117 72.6212 22.081C72.9465 22.3656 73.2583 22.6774 73.5294 23.0027C73.6785 23.1654 73.8141 23.3416 73.936 23.5178C74.0038 23.5991 74.058 23.694 74.1258 23.7889C74.1529 23.8296 74.1936 23.8838 74.2207 23.9244L74.2885 24.0329L74.3156 24.0735C74.3698 24.182 74.3834 24.3175 74.3698 24.4531C74.3291 24.6428 74.2071 24.7919 74.0445 24.8868C73.7463 25.0359 73.3939 24.9275 73.2312 24.6293L73.177 24.5209L73.1228 24.4124C73.0685 24.3175 73.0279 24.2362 72.9737 24.1549C72.8788 23.9922 72.7703 23.8296 72.6619 23.6804C72.445 23.3822 72.201 23.084 71.9299 22.7858C71.4013 22.2165 70.7913 21.715 70.1271 21.3219C69.8018 21.1186 69.4494 20.9424 69.0834 20.7933C68.731 20.6442 68.3514 20.5222 67.9583 20.4137C67.1993 20.224 66.386 20.1155 65.5862 20.0884C64.7458 20.0749 63.9326 20.1562 63.1735 20.3595C63.065 20.4002 62.9566 20.4273 62.8617 20.4679Z" fill="white"/>
<path d="M68.4734 22.4333C69.1376 22.7722 69.7747 23.206 70.3576 23.7211C71.3471 24.6021 72.1604 25.6865 72.7839 26.9471C73.1092 27.6113 73.3396 28.2348 73.5023 28.8855C73.6514 29.4819 73.7869 30.2003 73.7327 31.0407C73.7327 31.0814 73.7327 31.1085 73.7192 31.122C73.6649 31.4202 73.3803 31.6371 73.0685 31.6236C72.9059 31.61 72.7568 31.5422 72.6483 31.4202C72.5399 31.2982 72.4857 31.1356 72.4992 30.9729C72.4992 30.9458 72.4992 30.9187 72.5128 30.8916L72.5263 30.8238C72.567 30.5934 72.5941 30.3223 72.5941 30.0105V29.7801C72.5941 29.7259 72.5941 29.6717 72.5806 29.631V29.5632C72.5806 29.4548 72.567 29.3328 72.5534 29.2243L72.5399 29.1023C72.4586 28.5059 72.3095 27.8824 72.0926 27.2589C71.6588 26.0118 70.9946 24.8597 70.1678 23.9244C69.6527 23.3415 69.0834 22.84 68.4734 22.4333Z" fill="white"/>
<path d="M70.832 18.8005C71.3877 18.8548 71.8757 18.9632 72.3501 19.1259L72.4043 19.153C72.5128 19.1936 72.6077 19.2207 72.7161 19.275L72.9194 19.3698L73.0956 19.4647C73.1634 19.4918 73.2176 19.5325 73.2719 19.5596L73.3261 19.5867C73.3667 19.6138 73.4074 19.6409 73.4481 19.6681L73.4887 19.6952C73.5294 19.7223 73.5701 19.7494 73.6243 19.79L73.7056 19.8578L73.7327 19.8849C73.7463 19.8985 73.7598 19.912 73.7869 19.9392C73.8547 20.0069 73.8818 20.1289 73.8547 20.2374C73.8412 20.3187 73.8005 20.3865 73.7327 20.4407C73.665 20.5085 73.5565 20.5356 73.4616 20.5356C73.3667 20.5356 73.2854 20.4949 73.2312 20.4271L73.2176 20.4136C73.2176 20.3729 73.1905 20.3594 73.177 20.3322C73.1499 20.2916 73.1092 20.2509 73.0685 20.2102C73.0143 20.156 72.9872 20.1154 72.9465 20.0883C72.8788 20.0205 72.8245 19.9663 72.7703 19.9256L72.6483 19.8172L72.4992 19.7087C72.4315 19.6545 72.3366 19.5867 72.2552 19.5325L72.201 19.4918C71.8079 19.2343 71.3471 19.0174 70.832 18.8412L70.6829 18.787L70.832 18.8005Z" fill="white"/>
<path d="M68.5683 24.5344C68.6903 24.6835 68.7445 24.8597 68.7445 25.0359L69.0156 23.4093L67.511 23.5177C67.8906 23.8159 68.243 24.1548 68.5683 24.5344Z" fill="white"/>
<path d="M65.654 22.7858C66.1691 23.0027 66.6435 23.2738 67.0908 23.5991C67.5246 23.9244 67.9312 24.3039 68.3243 24.7512C68.4057 24.8461 68.4328 24.9546 68.4192 25.0766C68.4057 25.1579 68.365 25.2392 68.2972 25.2934C68.1346 25.429 67.9041 25.4154 67.7686 25.2528C67.755 25.2257 67.7415 25.2121 67.7144 25.185C67.4568 24.7106 67.1586 24.2768 66.8469 23.8973C66.508 23.5042 66.1149 23.1382 65.6676 22.8265C65.6269 22.7993 65.5727 22.7587 65.532 22.7316C65.5591 22.7451 65.5998 22.7587 65.654 22.7858Z" fill="white"/>
<path d="M3.6405 62.759C3.00342 62.759 2.42056 62.5422 1.93258 62.1355C1.39039 61.6746 1.06507 61.0511 1.02441 60.3598L0.00779313 47.4014C-0.0464263 46.7101 0.184006 46.0188 0.644872 45.4901C1.10574 44.9615 1.74282 44.6497 2.43411 44.5955C3.87093 44.4871 5.29419 44.3786 6.73101 44.2702C6.77167 44.2702 6.853 44.2566 6.89367 44.2566C7.24609 44.2566 7.59852 44.3244 7.9645 44.4871C8.42537 44.6904 8.8049 44.9886 9.076 45.3817C10.1739 46.8727 11.2854 48.4044 12.3969 49.9361C13.2916 48.2689 14.1997 46.5881 15.0944 44.9479C15.3384 44.5277 15.6366 44.2295 16.0161 43.9855C16.4092 43.7416 16.8429 43.606 17.2767 43.5789C18.7135 43.4976 20.1503 43.4162 21.6007 43.3485C21.6278 43.3485 21.7091 43.3485 21.7362 43.3485C22.4004 43.3485 22.9968 43.5789 23.4848 44.0127C24.0135 44.4735 24.3252 45.1242 24.3523 45.829L24.7319 53.4333C26.3042 50.397 27.9037 47.3336 29.5032 44.338C29.7065 43.9313 30.0454 43.5653 30.5062 43.3078C30.9264 43.0638 31.3331 42.9283 31.7533 42.9147C32.8377 42.874 33.9356 42.8469 35.0065 42.8063C35.5215 42.8063 35.9553 42.9147 36.3755 43.1587C36.7686 43.3891 37.0939 43.6873 37.3243 44.0669C39.4254 47.6454 41.5535 51.3594 43.6816 55.1005C44.7253 53.8535 45.7961 52.6064 46.8534 51.3729C45.4979 49.9226 44.1018 48.4722 42.7192 47.0218C42.3396 46.6152 42.1092 46.1543 42.0143 45.6528C41.9194 45.1377 41.9872 44.6091 42.2041 44.1211C42.4074 43.6873 42.7192 43.3214 43.1123 43.0503C43.546 42.752 44.0476 42.6029 44.5898 42.5894C46.2028 42.5623 47.8158 42.5352 49.4288 42.5216C49.8084 42.5216 50.1608 42.6029 50.5132 42.7656C50.8792 42.9283 51.1639 43.1316 51.3943 43.3891C51.9907 43.9991 52.5736 44.6226 53.17 45.2461C53.7257 44.6226 54.295 44.0126 54.8508 43.3891C55.1626 43.0231 55.5285 42.8334 55.7861 42.7249C56.1656 42.5623 56.5045 42.4945 56.8434 42.4945C58.2802 42.4945 59.7034 42.5081 61.1267 42.5216C61.6282 42.5216 62.1026 42.6572 62.5229 42.9012C62.9159 42.6707 63.3497 42.5487 63.7835 42.5487C64.9627 42.5623 66.1013 42.5758 67.2399 42.6029C67.6737 42.6165 68.0939 42.7249 68.4599 42.9554C68.8394 42.752 69.2461 42.6572 69.6798 42.6572C71.1709 42.6843 72.6077 42.7249 74.0445 42.7521C74.4511 42.7656 74.8578 42.874 75.2644 43.0909C75.7117 43.3349 76.0506 43.6738 76.281 44.094C77.2299 45.6799 78.1787 47.3065 79.1411 48.9466C80.1848 47.3743 81.2557 45.8155 82.313 44.2566L82.3401 44.216C82.6112 43.85 82.9365 43.5789 83.3431 43.3891C83.7227 43.1994 84.1158 43.1045 84.5224 43.1045H84.6173C86.0541 43.1722 87.5045 43.2265 88.9413 43.2942C89.6461 43.3214 90.2968 43.6331 90.7576 44.1482C91.2321 44.6633 91.4896 45.341 91.4489 46.0459L91.083 53.6502C92.9535 50.763 94.8512 47.8758 96.7218 45.0699C96.9522 44.6904 97.3453 44.3515 97.8197 44.1346C98.1993 43.9584 98.5788 43.8635 98.9583 43.8635C98.999 43.8635 99.0803 43.8635 99.1074 43.8635C100.178 43.9313 101.263 43.9991 102.347 44.0669C102.808 44.094 103.255 44.2566 103.662 44.5413C104.041 44.8124 104.34 45.1513 104.529 45.5443C106.59 50.0175 108.65 54.5719 110.643 59.0992L110.67 59.167C111.009 60.0616 110.914 60.9562 110.385 61.6882C109.856 62.4337 109.016 62.8268 108.013 62.759C106.617 62.6506 105.221 62.5422 103.825 62.4473C103.364 62.4202 102.93 62.2575 102.523 61.9729C102.09 61.6746 101.764 61.268 101.588 60.7936L101.33 60.1972C99.9207 60.1023 98.511 60.0074 97.1149 59.9261L96.7353 60.5496C96.4507 60.9833 96.1389 61.2816 95.7187 61.4984C95.3256 61.7153 94.8919 61.8237 94.4581 61.8237C94.431 61.8237 94.3497 61.8237 94.3226 61.8237C93.0755 61.756 91.842 61.6882 90.6085 61.6204C90.1477 61.5933 89.7004 61.4578 89.3208 61.2273C88.9548 61.4035 88.5753 61.4984 88.1822 61.4984C88.1551 61.4984 88.0738 61.4984 88.0467 61.4984C86.8674 61.4442 85.6746 61.39 84.4682 61.3358C83.7633 61.3087 83.1127 61.0105 82.6383 60.4818C82.3807 60.1972 82.191 59.8854 82.0825 59.533L81.9063 59.8312C81.6488 60.2514 81.3235 60.5631 80.9168 60.7936C80.5237 61.024 80.0764 61.146 79.6291 61.146L77.8534 61.0918C77.379 61.0782 76.9181 60.9291 76.4979 60.6445C76.1048 60.3869 75.8066 60.0481 75.6033 59.655L75.4406 59.3297C75.3051 59.6685 75.0882 59.9667 74.8171 60.2243C74.3291 60.6851 73.6921 60.9427 73.0143 60.9427C71.7537 60.9156 70.5609 60.8885 69.3681 60.8614C68.9479 60.8478 68.5277 60.7394 68.1481 60.5225C67.7957 60.7123 67.389 60.8071 66.9688 60.8071C65.8167 60.7936 64.7052 60.78 63.5937 60.7665C63.1735 60.7665 62.7668 60.658 62.4009 60.4412C62.0213 60.6309 61.6011 60.7394 61.1538 60.7394C59.6221 60.7258 58.104 60.7123 56.5994 60.7123C56.2198 60.7123 55.8539 60.6174 55.4743 60.4412C55.0541 60.2514 54.7424 59.9938 54.4984 59.6685C53.9155 58.9501 53.3326 58.2182 52.7362 57.4726C52.0856 58.2317 51.435 58.9908 50.7843 59.7499C50.5539 60.0616 50.2286 60.3192 49.8219 60.4954C49.456 60.658 49.1035 60.7394 48.7511 60.7394C47.3414 60.7529 45.9317 60.7665 44.522 60.7936H44.4678C44.1289 60.7936 43.79 60.7258 43.4783 60.6174C43.1529 60.7529 42.8005 60.8342 42.4345 60.8342C41.0384 60.8614 39.6422 60.902 38.2461 60.9291C37.7445 60.9291 37.3243 60.8207 36.8906 60.5903C36.4297 60.3327 36.0637 59.9667 35.8469 59.5194L35.5351 58.9501C34.1254 58.9908 32.7157 59.045 31.306 59.0857L30.9942 59.7363C30.7638 60.1836 30.4656 60.5225 30.086 60.7936C29.6794 61.0782 29.205 61.2273 28.717 61.2544C27.4835 61.3087 26.25 61.3629 25.0165 61.4171H24.881C24.4608 61.4171 24.0677 61.3222 23.7017 61.146C23.3222 61.3764 22.902 61.512 22.4682 61.5255C21.2754 61.5933 20.0826 61.6475 18.8897 61.7153C18.8491 61.7153 18.7677 61.7153 18.7406 61.7153C18.09 61.7153 17.48 61.4849 16.992 61.0511C16.7074 60.7936 16.477 60.4954 16.3279 60.1429L16.1788 60.4547C15.9754 60.8885 15.6772 61.2409 15.2977 61.4984C14.9046 61.7831 14.4302 61.9593 13.9693 61.9864L12.3292 62.122C12.2885 62.122 12.2072 62.122 12.1665 62.122C11.7463 62.122 11.3397 62.0135 10.9466 61.8102C10.5399 61.5933 10.2146 61.2951 9.97062 60.9291L9.75374 60.6038C9.6453 60.9562 9.46909 61.2816 9.2251 61.5527C8.76424 62.0948 8.12716 62.4066 7.42231 62.4608C6.22948 62.5422 5.03665 62.637 3.84382 62.7319C3.77605 62.7455 3.70827 62.759 3.6405 62.759ZM6.90722 44.7175C6.88011 44.7175 6.79878 44.7175 6.77167 44.7175C5.33486 44.8259 3.9116 44.9208 2.47478 45.0428C1.90547 45.0835 1.37683 45.3546 0.997299 45.7883C0.617762 46.2221 0.427994 46.7914 0.468659 47.3607L1.48527 60.3192C1.52594 60.8885 1.79704 61.4036 2.24435 61.7831C2.6781 62.1626 3.24741 62.3388 3.81671 62.2982C5.00954 62.2033 6.20237 62.122 7.3952 62.0271C7.97806 61.9864 8.5067 61.7289 8.87268 61.2951C9.19799 60.9291 9.37421 60.4818 9.40132 59.9938L9.44198 59.2619L10.3502 60.7123C10.5535 61.0105 10.8246 61.2544 11.1635 61.4442C11.4888 61.6204 11.8276 61.7018 12.1665 61.7018C12.1936 61.7018 12.2614 61.7018 12.2885 61.7018L13.9693 61.5933C14.3488 61.5662 14.7284 61.4307 15.0673 61.2002C15.3926 60.9698 15.623 60.6851 15.7992 60.3327L16.5176 58.7875L16.6396 59.5194C16.7209 59.9938 16.9649 60.4276 17.3309 60.7665C17.7376 61.1189 18.2255 61.3087 18.7677 61.3087C18.7948 61.3087 18.8626 61.3087 18.8897 61.3087C20.0826 61.2409 21.2754 61.1867 22.4682 61.1189C22.8613 61.0918 23.2408 60.9698 23.5797 60.7394L23.7017 60.658L23.8237 60.7258C24.149 60.902 24.5285 60.9969 24.9081 60.9969H25.0301C26.2636 60.9427 27.4971 60.8885 28.7306 60.8342C29.1237 60.8207 29.5167 60.6851 29.8556 60.4547C30.1809 60.2378 30.4249 59.9532 30.6147 59.5872L31.0349 58.679H31.1704C32.675 58.6248 34.1796 58.5706 35.6842 58.5299H35.8198L36.2806 59.3568C36.4704 59.7363 36.7686 60.0345 37.1481 60.2514C37.5006 60.4547 37.853 60.536 38.2596 60.536C39.6558 60.4954 41.0519 60.4683 42.4481 60.4412C42.787 60.4276 43.0987 60.3598 43.3969 60.2243L43.4918 60.1836L43.5867 60.2243C43.8713 60.3463 44.1696 60.414 44.4813 60.414C45.9317 60.3869 47.3414 60.3734 48.7647 60.3598C49.0493 60.3598 49.334 60.2921 49.6457 60.1565C49.971 60.0074 50.2421 59.8041 50.4319 59.533C51.1503 58.6926 51.8687 57.8657 52.5871 57.0389L52.7633 56.8356L52.9396 57.0524C53.5902 57.8657 54.2408 58.6655 54.8779 59.4652C55.0812 59.7363 55.3388 59.9396 55.6912 60.1023C56.0165 60.2514 56.3147 60.3327 56.6265 60.3327C58.1446 60.3327 59.6492 60.3463 61.1809 60.3598C61.5876 60.3598 61.9807 60.2514 62.306 60.0616L62.428 59.9938L62.55 60.0616C62.8753 60.2649 63.2413 60.3734 63.6072 60.3734C64.7187 60.3869 65.8302 60.4005 66.9553 60.414C67.3484 60.414 67.7144 60.3056 68.0261 60.1158L68.1481 60.0481L68.2701 60.1294C68.609 60.3463 68.9885 60.4547 69.3816 60.4683C70.5744 60.4954 71.7673 60.5225 73.0279 60.5496C73.5836 60.5496 74.1123 60.3463 74.5054 59.9532C74.8578 59.6143 75.0882 59.1806 75.156 58.7061L75.2644 57.9742L76.0235 59.4923C76.1862 59.8176 76.4437 60.0887 76.7555 60.3056C77.1079 60.536 77.4739 60.658 77.867 60.6716L79.6291 60.7258C79.9815 60.7258 80.3475 60.6309 80.6728 60.4412C81.0117 60.2514 81.2828 59.9803 81.4997 59.6414L82.3672 58.1775L82.4214 58.923C82.4485 59.411 82.6518 59.8583 82.9771 60.2243C83.3702 60.6445 83.8989 60.902 84.4817 60.9291C85.6746 60.9833 86.8674 61.0376 88.0602 61.0918C88.0873 61.0918 88.1551 61.0918 88.1687 61.0918C88.5346 61.0918 88.8871 60.9969 89.2124 60.8207L89.3344 60.7529L89.4564 60.8342C89.7952 61.0647 90.2019 61.2002 90.6357 61.2138C91.8691 61.2816 93.1026 61.3493 94.3497 61.4171C94.3768 61.4171 94.431 61.4171 94.4581 61.4171C94.8241 61.4171 95.163 61.3222 95.5018 61.146C95.8407 60.9562 96.1118 60.7122 96.3422 60.3463L96.8573 59.4923L96.9929 59.5059C98.4839 59.6008 99.9885 59.6956 101.493 59.7905L101.629 59.8041L102.008 60.6716C102.157 61.0647 102.428 61.4035 102.781 61.634C103.12 61.8644 103.486 62 103.852 62.0271C105.248 62.122 106.644 62.2304 108.04 62.3388C108.867 62.4066 109.572 62.0813 109.992 61.4713C110.412 60.8749 110.494 60.1294 110.209 59.3839L110.195 59.3432C108.203 54.8159 106.156 50.2614 104.096 45.8019C103.933 45.4901 103.689 45.2055 103.377 44.9886C103.038 44.7582 102.672 44.6226 102.293 44.5955C101.208 44.5277 100.124 44.4464 99.0532 44.3922C99.0261 44.3922 98.9583 44.3922 98.9312 44.3922C98.6195 44.3922 98.3077 44.46 97.9824 44.6226C97.5893 44.8124 97.264 45.0835 97.0742 45.3817C95.041 48.4315 92.9806 51.5627 90.961 54.6803L90.5001 55.4123L90.961 46.0865C90.9881 45.5037 90.7848 44.9615 90.3917 44.5277C89.9986 44.1075 89.4699 43.85 88.8871 43.8229C87.4503 43.7551 86.0134 43.6873 84.5631 43.6331H84.4682C84.1429 43.6331 83.8176 43.7144 83.5058 43.8635C83.1669 44.0262 82.9094 44.2566 82.6789 44.5548C81.5268 46.2356 80.4017 47.9165 79.2902 49.5837L79.0869 49.8955L78.8971 49.5701C77.8805 47.8216 76.8639 46.0865 75.8608 44.3922C75.6711 44.0533 75.4 43.7822 75.0204 43.5653C74.6951 43.3891 74.3562 43.2807 74.0174 43.2807C72.5806 43.24 71.1573 43.2129 69.6663 43.1858C69.2732 43.1858 68.9072 43.2942 68.5683 43.4976L68.4463 43.5653L68.3243 43.484C67.999 43.2671 67.6195 43.1451 67.2264 43.1451C66.0878 43.118 64.9492 43.118 63.7835 43.0909C63.3904 43.0909 62.9973 43.2129 62.6448 43.4433L62.5093 43.5382L62.3737 43.4433C62.0078 43.1994 61.574 43.0638 61.1131 43.0638C59.6899 43.0503 58.2531 43.0503 56.8298 43.0367C56.5452 43.0367 56.2741 43.1045 55.9487 43.24C55.7454 43.3349 55.4337 43.484 55.1897 43.7822C54.5661 44.4735 53.9562 45.1513 53.3326 45.829L53.17 46.0188L52.9938 45.8426C52.3431 45.1513 51.6925 44.4735 51.0419 43.7958C50.8521 43.5789 50.6217 43.4162 50.3099 43.2807C50.0117 43.1451 49.7135 43.0774 49.4153 43.0774C47.8023 43.0909 46.1892 43.118 44.5762 43.1451C44.1289 43.1587 43.7087 43.2807 43.3563 43.5247C43.0174 43.7551 42.7734 44.0533 42.6107 44.4057C42.4345 44.7988 42.3803 45.2326 42.4616 45.6663C42.5294 46.0865 42.7327 46.4661 43.0445 46.805C44.4813 48.296 45.9181 49.8141 47.3278 51.3052L47.4769 51.4543L47.3414 51.6169C46.1621 52.9995 44.9829 54.3821 43.8171 55.7647L43.6003 56.0223L43.4376 55.7376C41.2688 51.888 39.0729 48.0791 36.9313 44.4193C36.7415 44.1211 36.4704 43.8635 36.1451 43.6738C35.7926 43.4705 35.4402 43.3891 35.02 43.3891C33.9356 43.4162 32.8512 43.4569 31.7668 43.4976C31.428 43.5111 31.0756 43.6196 30.7367 43.8229C30.3571 44.0398 30.0725 44.338 29.9098 44.6633C28.1748 47.9165 26.4398 51.2374 24.7454 54.5177L24.3523 55.2903L23.8915 45.9646C23.8644 45.3817 23.6068 44.8531 23.1731 44.4735C22.7664 44.1075 22.2649 43.9178 21.7227 43.9178C21.6956 43.9178 21.6278 43.9178 21.6143 43.9178C20.1774 43.9855 18.7406 44.0669 17.3038 44.1482C16.9378 44.1753 16.599 44.2837 16.2601 44.4871C15.9348 44.6904 15.6908 44.9479 15.4875 45.2868C14.5386 47.0218 13.5762 48.7975 12.6274 50.5868L12.4512 50.9121L12.2343 50.6139C11.055 48.9737 9.86218 47.3471 8.69646 45.7477C8.47959 45.4224 8.16782 45.1784 7.78829 45.0157C7.49008 44.7717 7.19187 44.7175 6.90722 44.7175ZM61.6147 55.1819L61.208 54.6668C60.3541 53.6095 59.5001 52.5387 58.6462 51.4814L58.5242 51.3323L58.6597 51.1832C59.5272 50.2072 60.4083 49.2177 61.2894 48.2418L61.696 47.7809L61.6147 55.1819ZM59.1206 51.3458C59.7983 52.1862 60.4761 53.0402 61.1538 53.8806L61.208 49.0144C60.5167 49.787 59.8254 50.5597 59.1206 51.3458Z" fill="white"/>
<path d="M98.4432 79.3773C98.3755 79.3773 98.3077 79.3773 98.2399 79.3637C97.1284 79.2824 96.0305 79.2011 94.919 79.1197C94.4852 79.0926 94.065 78.93 93.6855 78.6724C93.2653 78.3878 92.9535 78.0082 92.7773 77.5474L92.6824 77.3305C91.7471 77.2627 90.8119 77.2085 89.8766 77.1543L89.7139 77.4118C89.4428 77.832 89.1446 78.1167 88.738 78.3336C88.3584 78.5369 87.9653 78.6453 87.5451 78.6453C87.5045 78.6453 87.4096 78.6453 87.3689 78.6318C86.4336 78.5775 85.4577 78.5233 84.4817 78.4691C84.1158 78.442 83.7769 78.3607 83.4651 78.2116C83.1805 78.32 82.8958 78.3742 82.5976 78.3742H82.4892C79.114 78.2116 75.6575 78.076 72.2281 77.9676C71.8893 77.954 71.5639 77.8727 71.2522 77.7236C70.954 77.8456 70.6422 77.9134 70.3169 77.9134H70.2627C67.4026 77.8456 64.4883 77.7914 61.6282 77.7507C61.2351 77.7507 60.842 77.6423 60.4896 77.4525C60.1372 77.6423 59.7577 77.7371 59.3646 77.7371C58.4699 77.7371 57.6024 77.7236 56.7214 77.7236C56.003 77.7236 55.3252 77.3983 54.8643 76.8425C54.4848 76.3952 54.2815 75.8124 54.2815 75.2159V73.0743C53.4004 73.4945 52.3567 73.7249 51.1096 73.7791L51.1232 75.2431C51.1368 75.9072 50.8792 76.5308 50.4184 77.0187C49.9439 77.4932 49.3204 77.7643 48.6427 77.7778C47.6532 77.7914 46.6501 77.8049 45.647 77.832H45.6064C45.2811 77.832 44.9693 77.7643 44.6575 77.6287C44.3322 77.7778 44.0069 77.8591 43.6545 77.8727C42.7056 77.8998 41.7703 77.9134 40.8351 77.9405C40.1302 77.9405 39.5067 77.6965 39.0323 77.2492C38.9645 77.1814 38.9103 77.1272 38.856 77.0594C38.6798 77.2763 38.4765 77.4796 38.2461 77.6287C37.853 77.8998 37.4192 78.0354 36.9584 78.0489L35.5758 78.1031C35.1149 78.1031 34.6947 77.9947 34.3016 77.7643C34.0576 77.6287 33.8407 77.4525 33.6645 77.2492C33.6103 77.317 33.5561 77.3847 33.5019 77.4525C33.0546 77.9405 32.431 78.2251 31.7669 78.2658C30.818 78.3065 29.8827 78.3471 28.9474 78.4013C28.9474 78.4013 28.8526 78.4013 28.8254 78.4013C28.5408 78.4013 28.2561 78.3471 27.9715 78.2522C27.6733 78.4013 27.3615 78.4827 27.0226 78.4962C26.1551 78.5369 25.2741 78.5911 24.393 78.6453C24.3659 78.6453 24.2846 78.6453 24.2439 78.6453C23.9592 78.6453 23.6882 78.5911 23.4171 78.4962C23.1188 78.6453 22.7935 78.7402 22.4682 78.7538C19.5404 78.93 16.5718 79.1469 13.6575 79.3637C13.6304 79.3637 13.4949 79.3773 13.4542 79.3773C12.8443 79.3773 12.2885 79.174 11.8276 78.7809C11.3126 78.3471 11.0143 77.7507 10.9601 77.0865L10.1604 66.839C10.1062 66.202 10.3095 65.5649 10.7297 65.0498C11.1635 64.5212 11.787 64.1958 12.4783 64.1416C13.522 64.0603 14.5793 63.979 15.623 63.8976C15.6637 63.8976 15.7721 63.8841 15.7992 63.8841C16.3821 63.8841 16.9243 64.0874 17.3851 64.4534C17.9409 64.8871 18.2662 65.5107 18.3069 66.2155L18.6728 71.529C19.6217 71.4612 20.557 71.407 21.5058 71.3393L21.1941 66.0122C21.1534 65.4158 21.3296 64.8194 21.6956 64.3449C22.1429 63.7621 22.78 63.4232 23.4984 63.3825C24.393 63.3283 25.2876 63.2741 26.1958 63.2334C26.2094 63.2334 26.2907 63.2334 26.3314 63.2334C26.6296 63.2334 26.9142 63.2877 27.1989 63.3961C27.5106 63.247 27.8495 63.1521 28.1748 63.1386C29.3134 63.0843 30.4385 63.0301 31.5771 62.9759H31.6449C32.038 62.9759 32.3904 63.0572 32.7564 63.2199C33.2037 63.4232 33.5425 63.7214 33.8001 64.1145C34.5049 65.1447 35.2233 66.1748 35.9146 67.205C36.5382 66.1071 37.1752 65.0227 37.7988 63.9383C38.0428 63.5588 38.3274 63.2605 38.7069 63.0437C39.0865 62.8132 39.4931 62.7048 39.9269 62.6912C41.0655 62.6641 42.2041 62.6235 43.3427 62.6099C43.7087 62.6099 44.0476 62.6777 44.3729 62.8132C44.6982 62.6506 45.0371 62.5693 45.3759 62.5693C46.7992 62.5421 48.236 62.515 49.6593 62.5015H49.8897C50.8386 62.5015 51.7061 62.5692 52.4651 62.7048C53.3462 62.8539 54.1324 63.125 54.783 63.5045C54.8237 63.4503 54.8643 63.3961 54.9186 63.3283C55.393 62.7726 56.0436 62.4608 56.762 62.4608C57.6702 62.4608 58.5648 62.4608 59.473 62.4744C59.8797 62.4744 60.2863 62.5828 60.6387 62.7861C61.0047 62.5964 61.3978 62.5015 61.8044 62.5015C64.6239 62.5286 67.4839 62.5828 70.3033 62.6506C70.7642 62.6641 71.2115 62.7997 71.6046 63.0572C71.9841 62.8403 72.4179 62.7184 72.8517 62.7184C76.2539 62.8268 79.6969 62.9623 83.1127 63.125C83.7633 63.1521 84.3733 63.4368 84.8342 63.9247C85.295 64.4127 85.5255 65.0633 85.4984 65.7411L85.3899 67.7743C85.3764 68.1403 85.2544 68.4656 85.173 68.6689C85.0239 69.0214 84.8206 69.306 84.5631 69.5365C83.9666 70.0515 83.3838 70.5666 82.8009 71.0817H82.8823C83.4516 71.1088 83.9938 71.3257 84.414 71.7052C85.9457 69.3467 87.4774 67.0017 89.0091 64.7245C89.2395 64.3585 89.6055 64.0332 90.0528 63.8299C90.4052 63.6672 90.7712 63.5859 91.1372 63.5859C91.1778 63.5859 91.2456 63.5859 91.2863 63.5859C92.1402 63.6401 92.9942 63.6943 93.8481 63.7485C94.309 63.7756 94.7292 63.9383 95.1223 64.2094C95.4747 64.4669 95.7458 64.7787 95.9356 65.1582C97.5893 68.7367 99.2023 72.3423 100.761 75.8801L100.788 75.9344C101.114 76.7883 101.019 77.6423 100.531 78.3471C100.016 78.9978 99.2701 79.3773 98.4432 79.3773ZM89.619 76.6799L89.7546 76.6934C90.7848 76.7612 91.8149 76.829 92.8315 76.8967L92.9671 76.9103L93.1704 77.3983C93.3195 77.7778 93.5771 78.0896 93.9024 78.32C94.2141 78.5369 94.553 78.6589 94.919 78.686C96.0169 78.7673 97.1149 78.8486 98.2399 78.93C98.999 78.9842 99.6767 78.6724 100.083 78.1031C100.49 77.5338 100.558 76.829 100.287 76.1241L100.49 75.9886L100.273 76.0835C98.7144 72.5456 97.1013 68.94 95.4476 65.3751C95.2985 65.0769 95.0681 64.8194 94.7834 64.6025C94.4581 64.372 94.1192 64.2501 93.7533 64.2229C92.8993 64.1687 92.0454 64.1145 91.1914 64.0603C91.1643 64.0603 91.0965 64.0603 91.0694 64.0603C90.7712 64.0603 90.473 64.1281 90.1748 64.2636C89.8088 64.4398 89.5106 64.6838 89.3208 64.982C87.7485 67.3541 86.149 69.7804 84.5766 72.2068L84.414 72.4643L84.2106 72.2339C83.8311 71.8137 83.3296 71.5832 82.7874 71.5426L81.5674 71.4884L81.9876 71.1088C82.7196 70.4717 83.438 69.8347 84.17 69.184C84.3733 69.0078 84.536 68.7774 84.6579 68.4792C84.7393 68.303 84.8342 68.0454 84.8477 67.7472L84.9562 65.714C84.9833 65.1718 84.7935 64.6431 84.414 64.2365C84.048 63.8434 83.5465 63.5994 83.0178 63.5859C79.6155 63.4232 76.1726 63.2877 72.7839 63.1792C72.3908 63.1792 72.0113 63.3012 71.6724 63.5181L71.5368 63.613L71.4013 63.5181C71.0624 63.2606 70.6558 63.125 70.2356 63.1114C67.4297 63.0437 64.5696 62.9895 61.7502 62.9623C61.3978 62.9623 61.0318 63.0708 60.7065 63.2605L60.5845 63.3283L60.4625 63.247C60.1507 63.0437 59.7848 62.9352 59.4188 62.9352C58.5106 62.9352 57.616 62.9217 56.7078 62.9217C56.125 62.9217 55.5963 63.1657 55.2168 63.613C55.1354 63.7079 55.0677 63.8163 54.9999 63.9112L54.8779 64.1145L54.6339 63.9654C53.9968 63.5723 53.2242 63.3012 52.3296 63.1386C51.5976 63.003 50.7572 62.9352 49.8355 62.9352H49.6186C48.1954 62.9488 46.7585 62.9759 45.3353 63.003C45.0235 63.003 44.7253 63.0843 44.4271 63.247L44.3187 63.3012L44.2102 63.247C43.9256 63.1114 43.6138 63.0437 43.2885 63.0437C42.1634 63.0708 41.0113 63.0979 39.8862 63.125C39.5473 63.1386 39.2085 63.2334 38.8967 63.4097C38.585 63.5994 38.341 63.8299 38.1512 64.1416C37.4599 65.3209 36.7686 66.5137 36.0909 67.7201L35.9011 68.0454L35.7384 67.7743C34.9658 66.6493 34.1932 65.5107 33.407 64.3856C33.2037 64.0738 32.919 63.8299 32.5666 63.6536C32.2684 63.5181 31.9702 63.4503 31.6449 63.4503C30.4656 63.5045 29.3405 63.5588 28.2019 63.613C27.9037 63.6265 27.6055 63.7079 27.3209 63.8705L27.226 63.9247L27.1175 63.8841C26.8735 63.7621 26.616 63.7079 26.3449 63.7079C26.3178 63.7079 26.2636 63.7079 26.2365 63.7079C25.3283 63.7621 24.4337 63.8027 23.539 63.857C22.9562 63.8841 22.4411 64.1687 22.0887 64.6431C21.7905 65.0362 21.6414 65.5242 21.682 65.9986L22.0209 71.7866L21.7905 71.8001C20.6925 71.8679 19.5946 71.9357 18.4966 72.017L18.2662 72.0305L17.8596 66.2562C17.8189 65.6869 17.5478 65.1853 17.1005 64.8194C16.7209 64.5212 16.2736 64.3585 15.7992 64.3585C15.7721 64.3585 15.6772 64.3585 15.6501 64.3585C14.6064 64.4263 13.5491 64.5212 12.5054 64.6025C11.9496 64.6431 11.4346 64.9007 11.0821 65.3344C10.7433 65.7546 10.5806 66.2697 10.6213 66.7848L11.421 77.0187C11.4617 77.5609 11.7192 78.0489 12.1258 78.4013C12.5054 78.7267 12.9663 78.8893 13.4542 78.8893C13.4813 78.8893 13.5898 78.8893 13.6169 78.8758C16.5447 78.6453 19.5133 78.442 22.4411 78.2658C22.7258 78.2522 23.0104 78.1573 23.2815 78.0082L23.3764 77.954L23.4848 77.9947C23.7288 78.1031 23.9728 78.1438 24.2303 78.1438C24.2575 78.1438 24.3252 78.1438 24.3388 78.1438C25.2199 78.0896 26.0874 78.0489 26.9684 77.9947C27.2666 77.9811 27.5513 77.8998 27.8088 77.7507L27.9037 77.6965L28.0122 77.7371C28.2697 77.8456 28.5272 77.8998 28.7848 77.8998C28.8119 77.8998 28.8661 77.8998 28.8797 77.8998C29.8285 77.8591 30.7638 77.8049 31.7126 77.7643C32.2548 77.7371 32.7564 77.5067 33.1359 77.1136C33.2443 76.9916 33.3392 76.8561 33.4205 76.7205L33.6103 76.3952L33.8272 76.707C34.0034 76.9645 34.2338 77.1814 34.5185 77.3441C34.8438 77.5338 35.1827 77.6287 35.5622 77.6287L36.9313 77.5745C37.3108 77.5609 37.6632 77.4389 37.975 77.2221C38.2461 77.0323 38.463 76.8019 38.6392 76.5172L38.8289 76.1919L39.0323 76.5172C39.1271 76.6528 39.2356 76.7883 39.344 76.8967C39.7371 77.2763 40.2251 77.4525 40.8215 77.4525C41.7568 77.4254 42.7056 77.3983 43.6409 77.3847C43.9391 77.3712 44.2509 77.3034 44.5355 77.1407L44.644 77.0865L44.7524 77.1407C45.0371 77.2763 45.3217 77.3441 45.6064 77.3441C46.6501 77.317 47.6396 77.3034 48.6427 77.2898C49.1984 77.2898 49.6999 77.0594 50.093 76.6663C50.4726 76.2732 50.6759 75.7581 50.6759 75.2295L50.6488 73.3183L50.8792 73.3047C52.316 73.264 53.4682 72.9929 54.4035 72.4779L54.7424 72.2881V75.2024C54.7424 75.6904 54.905 76.1648 55.2168 76.5308C55.5963 76.9916 56.1385 77.2492 56.7078 77.2492C57.5889 77.2492 58.4564 77.2492 59.351 77.2627C59.717 77.2627 60.0559 77.1678 60.3676 76.9781L60.4896 76.9103L60.6116 76.9781C60.9369 77.1814 61.2894 77.2763 61.6418 77.2763C64.5019 77.3034 67.4162 77.3576 70.3033 77.4389C70.6016 77.4525 70.8998 77.3712 71.1709 77.2492L71.2793 77.2085L71.3742 77.2627C71.6588 77.4118 71.957 77.4932 72.2552 77.5067C75.6846 77.6152 79.1411 77.7507 82.5163 77.9134H82.6112C82.8687 77.9134 83.1398 77.8591 83.3973 77.7507L83.5058 77.71L83.6007 77.7643C83.8853 77.9134 84.1971 78.0082 84.5224 78.0218C85.4984 78.076 86.4743 78.1302 87.4231 78.1845C87.4638 78.1845 87.5316 78.1845 87.5722 78.1845C87.9111 78.1845 88.2364 78.1031 88.5482 77.9405C88.8735 77.7643 89.1311 77.5203 89.3479 77.1814L89.619 76.6799ZM71.3877 71.4612L71.4555 68.8994L71.7944 69.0756C72.079 69.2382 72.3908 69.3196 72.7026 69.3331L73.6785 69.3602L73.2583 69.7398C72.8652 70.0922 72.4857 70.4582 72.0926 70.8106L71.3877 71.4612ZM71.8893 69.6449L71.8622 70.3769C72.079 70.1735 72.2824 69.9838 72.4992 69.794C72.3095 69.7804 72.1061 69.7262 71.8893 69.6449Z" fill="white"/>
<path d="M98.4432 79.3773C98.3755 79.3773 98.3077 79.3773 98.2399 79.3637C97.1284 79.2824 96.0305 79.2011 94.919 79.1197C94.4852 79.0926 94.065 78.93 93.6855 78.6724C93.2653 78.3878 92.9535 78.0082 92.7773 77.5474L92.6824 77.3305C91.7471 77.2627 90.8119 77.2085 89.8766 77.1543L89.7139 77.4118C89.4428 77.832 89.1446 78.1167 88.738 78.3336C88.3584 78.5369 87.9653 78.6453 87.5451 78.6453C87.5045 78.6453 87.4096 78.6453 87.3689 78.6318C86.4336 78.5775 85.4577 78.5233 84.4817 78.4691C84.1158 78.442 83.7769 78.3607 83.4651 78.2116C83.1805 78.32 82.8958 78.3742 82.5976 78.3742H82.4892C79.114 78.2116 75.6575 78.076 72.2281 77.9676C71.8893 77.954 71.5639 77.8727 71.2522 77.7236C70.954 77.8456 70.6422 77.9134 70.3169 77.9134H70.2627C67.4026 77.8456 64.4883 77.7914 61.6282 77.7507C61.2351 77.7507 60.842 77.6423 60.4896 77.4525C60.1372 77.6423 59.7577 77.7371 59.3646 77.7371C58.4699 77.7371 57.6024 77.7236 56.7214 77.7236C56.003 77.7236 55.3252 77.3983 54.8643 76.8425C54.4848 76.3952 54.2815 75.8124 54.2815 75.2159V73.0743C53.4004 73.4945 52.3567 73.7249 51.1096 73.7791L51.1232 75.2431C51.1368 75.9072 50.8792 76.5308 50.4184 77.0187C49.9439 77.4932 49.3204 77.7643 48.6427 77.7778C47.6532 77.7914 46.6501 77.8049 45.647 77.832H45.6064C45.2811 77.832 44.9693 77.7643 44.6575 77.6287C44.3322 77.7778 44.0069 77.8591 43.6545 77.8727C42.7056 77.8998 41.7703 77.9134 40.8351 77.9405C40.1302 77.9405 39.5067 77.6965 39.0323 77.2492C38.9645 77.1814 38.9103 77.1272 38.856 77.0594C38.6798 77.2763 38.4765 77.4796 38.2461 77.6287C37.853 77.8998 37.4192 78.0354 36.9584 78.0489L35.5758 78.1031C35.1149 78.1031 34.6947 77.9947 34.3016 77.7643C34.0576 77.6287 33.8407 77.4525 33.6645 77.2492C33.6103 77.317 33.5561 77.3847 33.5019 77.4525C33.0546 77.9405 32.431 78.2251 31.7669 78.2658C30.818 78.3065 29.8827 78.3471 28.9474 78.4013C28.9474 78.4013 28.8526 78.4013 28.8254 78.4013C28.5408 78.4013 28.2561 78.3471 27.9715 78.2522C27.6733 78.4013 27.3615 78.4827 27.0226 78.4962C26.1551 78.5369 25.2741 78.5911 24.393 78.6453C24.3659 78.6453 24.2846 78.6453 24.2439 78.6453C23.9592 78.6453 23.6882 78.5911 23.4171 78.4962C23.1188 78.6453 22.7935 78.7402 22.4682 78.7538C19.5404 78.93 16.5718 79.1469 13.6575 79.3637C13.6304 79.3637 13.5084 79.3773 13.4542 79.3773C12.8443 79.3773 12.2885 79.174 11.8276 78.7809C11.3126 78.3471 11.0143 77.7507 10.9601 77.0865L10.1604 66.839C10.1062 66.202 10.3095 65.5649 10.7297 65.0498C11.1635 64.5212 11.787 64.1958 12.4783 64.1416C13.522 64.0603 14.5793 63.979 15.623 63.8976C15.6637 63.8976 15.7721 63.8841 15.7992 63.8841C16.3821 63.8841 16.9243 64.0874 17.3851 64.4534C17.9409 64.8871 18.2662 65.5107 18.3069 66.2155L18.6728 71.529C19.6217 71.4612 20.557 71.407 21.5058 71.3393L21.1941 66.0122C21.1534 65.4158 21.3296 64.8194 21.6956 64.3449C22.1429 63.7621 22.78 63.4232 23.4984 63.3825C24.393 63.3283 25.3012 63.2741 26.1958 63.2334C26.2094 63.2334 26.2907 63.2334 26.3314 63.2334C26.6296 63.2334 26.9142 63.2877 27.1989 63.3961C27.5106 63.2334 27.8359 63.1521 28.1748 63.1386C29.3134 63.0843 30.4385 63.0301 31.5771 62.9759H31.6449C32.038 62.9759 32.3904 63.0572 32.7564 63.2199C33.2037 63.4232 33.5425 63.7214 33.8001 64.1145C34.5049 65.1447 35.2233 66.1748 35.9146 67.205C36.5382 66.1071 37.1752 65.0227 37.7988 63.9383C38.0428 63.5588 38.3274 63.2605 38.7069 63.0437C39.0865 62.8132 39.4931 62.7048 39.9269 62.6912C41.0655 62.6641 42.2041 62.6235 43.3427 62.6099C43.7087 62.6099 44.0476 62.6777 44.3729 62.8132C44.6982 62.6506 45.0371 62.5693 45.3759 62.5693C46.7992 62.5421 48.236 62.515 49.6593 62.5015H49.8897C50.8386 62.5015 51.7061 62.5692 52.4651 62.7048C53.3462 62.8539 54.1324 63.125 54.783 63.5045C54.8237 63.4503 54.8643 63.3961 54.9186 63.3283C55.393 62.7726 56.0436 62.4608 56.762 62.4608C57.6702 62.4608 58.5648 62.4608 59.473 62.4744C59.8797 62.4744 60.2863 62.5828 60.6387 62.7861C61.0047 62.5964 61.3978 62.5015 61.8044 62.5015C64.6239 62.5286 67.4839 62.5828 70.3033 62.6506C70.7642 62.6641 71.2115 62.7997 71.6046 63.0572C71.9841 62.8403 72.4179 62.7184 72.8517 62.7184C76.2539 62.8268 79.6969 62.9623 83.1127 63.125C83.7633 63.1521 84.3733 63.4368 84.8342 63.9247C85.295 64.4127 85.5255 65.0633 85.4984 65.7411L85.3899 67.7743C85.3764 68.1403 85.2544 68.4656 85.173 68.6689C85.0239 69.0214 84.8206 69.306 84.5631 69.5365C83.9666 70.0515 83.3838 70.5666 82.8009 71.0817H82.8823C83.4516 71.1088 83.9938 71.3257 84.414 71.7052C85.9457 69.3467 87.4774 67.0017 89.0091 64.7245C89.2395 64.3585 89.6055 64.0332 90.0528 63.8299C90.4052 63.6672 90.7712 63.5859 91.1372 63.5859C91.1778 63.5859 91.2456 63.5859 91.2863 63.5859C92.1402 63.6401 92.9942 63.6943 93.8481 63.7485C94.309 63.7756 94.7292 63.9383 95.1223 64.2094C95.4747 64.4669 95.7458 64.7787 95.9356 65.1582C97.5893 68.7367 99.2023 72.3423 100.761 75.8801L100.788 75.9344C101.114 76.7883 101.019 77.6423 100.531 78.3471C100.016 78.9978 99.2701 79.3773 98.4432 79.3773ZM89.619 76.6799L89.7546 76.6934C90.7848 76.7612 91.8149 76.829 92.8315 76.8967L92.9671 76.9103L93.1704 77.3983C93.3195 77.7778 93.5771 78.0896 93.9024 78.32C94.2141 78.5369 94.553 78.6589 94.919 78.686C96.0169 78.7673 97.1149 78.8486 98.2399 78.93C98.999 78.9842 99.6767 78.6724 100.083 78.1031C100.49 77.5338 100.558 76.829 100.287 76.1241L100.49 75.9886L100.273 76.0835C98.7144 72.5456 97.1013 68.94 95.4476 65.3751C95.2985 65.0769 95.0681 64.8194 94.7834 64.6025C94.4581 64.372 94.1192 64.2501 93.7533 64.2229C92.8993 64.1687 92.0454 64.1145 91.1914 64.0603C91.1643 64.0603 91.0965 64.0603 91.0694 64.0603C90.7712 64.0603 90.473 64.1281 90.1748 64.2636C89.8088 64.4398 89.5106 64.6838 89.3208 64.982C87.7485 67.3541 86.149 69.7804 84.5766 72.2068L84.414 72.4643L84.2106 72.2339C83.8311 71.8137 83.3296 71.5832 82.7874 71.5426L81.5674 71.4884L81.9876 71.1088C82.7196 70.4717 83.438 69.8347 84.17 69.184C84.3733 69.0078 84.536 68.7774 84.6579 68.4792C84.7393 68.303 84.8342 68.0454 84.8477 67.7472L84.9562 65.714C84.9833 65.1718 84.7935 64.6431 84.414 64.2365C84.048 63.8434 83.5465 63.5994 83.0178 63.5859C79.6155 63.4232 76.1726 63.2877 72.7839 63.1792C72.3908 63.1792 72.0113 63.3012 71.6724 63.5181L71.5368 63.613L71.4013 63.5181C71.0624 63.2606 70.6558 63.125 70.2356 63.1114C67.4297 63.0437 64.5696 62.9895 61.7502 62.9623C61.3978 62.9623 61.0318 63.0708 60.7065 63.2605L60.5845 63.3283L60.4625 63.247C60.1507 63.0437 59.7848 62.9352 59.4188 62.9352C58.5106 62.9352 57.616 62.9217 56.7078 62.9217C56.125 62.9217 55.5963 63.1657 55.2168 63.613C55.1354 63.7079 55.0677 63.8163 54.9999 63.9112L54.8779 64.1145L54.6339 63.9654C53.9968 63.5723 53.2242 63.3012 52.3296 63.1386C51.5976 63.003 50.7572 62.9352 49.8355 62.9352H49.6186C48.1954 62.9488 46.7585 62.9759 45.3353 63.003C45.0235 63.003 44.7253 63.0843 44.4271 63.247L44.3187 63.3012L44.2102 63.247C43.9256 63.1114 43.6138 63.0437 43.2885 63.0437C42.1634 63.0708 41.0113 63.0979 39.8862 63.125C39.5473 63.1386 39.2085 63.2334 38.8967 63.4097C38.585 63.5994 38.341 63.8299 38.1512 64.1416C37.4599 65.3209 36.7686 66.5137 36.0909 67.7201L35.9011 68.0454L35.7384 67.7743C34.9658 66.6493 34.1932 65.5107 33.407 64.3856C33.2037 64.0738 32.919 63.8299 32.5666 63.6536C32.2684 63.5181 31.9702 63.4503 31.6449 63.4503C30.4656 63.5045 29.3405 63.5588 28.2019 63.613C27.9037 63.6265 27.6055 63.7079 27.3209 63.8705L27.226 63.9247L27.1175 63.8841C26.8735 63.7621 26.616 63.7079 26.3449 63.7079C26.3178 63.7079 26.2636 63.7079 26.2365 63.7079C25.3283 63.7621 24.4337 63.8027 23.539 63.857C22.9562 63.8841 22.4411 64.1687 22.0887 64.6431C21.7905 65.0362 21.6414 65.5242 21.682 65.9986L22.0209 71.7866L21.7905 71.8001C20.6925 71.8679 19.5946 71.9357 18.4966 72.017L18.2662 72.0305L17.8596 66.2562C17.8189 65.6869 17.5478 65.1853 17.1005 64.8194C16.7209 64.5212 16.2736 64.3585 15.7992 64.3585C15.7721 64.3585 15.6772 64.3585 15.6501 64.3585C14.6064 64.4263 13.5491 64.5212 12.5054 64.6025C11.9496 64.6431 11.4346 64.9007 11.0821 65.3344C10.7433 65.7546 10.5806 66.2697 10.6213 66.7848L11.421 77.0187C11.4617 77.5609 11.7192 78.0489 12.1258 78.4013C12.5054 78.7267 12.9663 78.8893 13.4542 78.8893C13.4813 78.8893 13.5898 78.8893 13.6169 78.8758C16.5447 78.6453 19.5133 78.442 22.4411 78.2658C22.7258 78.2522 23.0104 78.1573 23.2815 78.0082L23.3764 77.954L23.4848 77.9947C23.7288 78.1031 23.9728 78.1438 24.2303 78.1438C24.2575 78.1438 24.3252 78.1438 24.3388 78.1438C25.2199 78.0896 26.0874 78.0489 26.9684 77.9947C27.2666 77.9811 27.5513 77.8998 27.8088 77.7507L27.9037 77.6965L28.0122 77.7371C28.2697 77.8456 28.5272 77.8998 28.7848 77.8998C28.8119 77.8998 28.8661 77.8998 28.8797 77.8998C29.8285 77.8591 30.7638 77.8049 31.7126 77.7643C32.2548 77.7371 32.7564 77.5067 33.1359 77.1136C33.2443 76.9916 33.3392 76.8561 33.4205 76.7205L33.6103 76.3952L33.8272 76.707C34.0034 76.9645 34.2338 77.1814 34.5185 77.3441C34.8438 77.5338 35.1827 77.6287 35.5622 77.6287L36.9313 77.5745C37.3108 77.5609 37.6632 77.4389 37.975 77.2221C38.2461 77.0323 38.463 76.8019 38.6392 76.5172L38.8289 76.1919L39.0323 76.5172C39.1271 76.6528 39.2356 76.7883 39.344 76.8967C39.7371 77.2763 40.2251 77.4525 40.8215 77.4525C41.7568 77.4254 42.7056 77.3983 43.6409 77.3847C43.9391 77.3712 44.2509 77.3034 44.5355 77.1407L44.644 77.0865L44.7524 77.1407C45.0371 77.2763 45.3217 77.3441 45.6064 77.3441C46.6501 77.317 47.6396 77.3034 48.6427 77.2898C49.1984 77.2898 49.6999 77.0594 50.093 76.6663C50.4726 76.2732 50.6759 75.7581 50.6759 75.2295L50.6488 73.3183L50.8792 73.3047C52.316 73.264 53.4682 72.9929 54.4035 72.4779L54.7424 72.2881V75.2024C54.7424 75.6904 54.905 76.1648 55.2168 76.5308C55.5963 76.9916 56.1385 77.2492 56.7078 77.2492C57.5889 77.2492 58.4564 77.2492 59.351 77.2627C59.717 77.2627 60.0559 77.1678 60.3676 76.9781L60.4896 76.9103L60.6116 76.9781C60.9369 77.1814 61.2894 77.2763 61.6418 77.2763C64.5019 77.3034 67.4162 77.3576 70.3033 77.4389C70.6016 77.4525 70.8998 77.3712 71.1709 77.2492L71.2793 77.2085L71.3742 77.2627C71.6588 77.4118 71.957 77.4932 72.2552 77.5067C75.6982 77.6152 79.1411 77.7507 82.5163 77.9134H82.6112C82.8687 77.9134 83.1398 77.8591 83.3973 77.7507L83.5058 77.71L83.6007 77.7643C83.8853 77.9134 84.1971 78.0082 84.5224 78.0218C85.4984 78.076 86.4743 78.1302 87.4231 78.1845C87.4638 78.1845 87.5316 78.1845 87.5722 78.1845C87.9111 78.1845 88.2364 78.1031 88.5482 77.9405C88.8735 77.7643 89.1311 77.5203 89.3479 77.1814L89.619 76.6799ZM71.3877 71.4612L71.4555 68.8994L71.7808 69.0756C72.0655 69.2382 72.3772 69.3196 72.689 69.3331L73.665 69.3602L73.2448 69.7398C72.8517 70.0922 72.4721 70.4582 72.079 70.8106L71.3877 71.4612ZM71.8893 69.6449L71.8622 70.3769C72.079 70.1735 72.2824 69.9838 72.4992 69.794C72.3095 69.7669 72.1061 69.7262 71.8893 69.6449Z" fill="white"/>
<path d="M22.9291 87.6187H22.0209V81.5868H23.3222L24.1626 85.9108L24.9759 81.5868H26.2229V87.6187H25.3147V83.8233L24.5285 87.6187H23.7966L22.9155 83.8369L22.9291 87.6187Z" fill="white"/>
<path d="M28.1613 86.2361L27.9444 87.6187H26.9955L28.0122 81.5868H29.2592L30.2623 87.6187H29.3134L29.0965 86.2361H28.1613ZM28.6357 82.9694L28.2968 85.3415H28.9745L28.6357 82.9694Z" fill="white"/>
<path d="M31.9566 87.6187H31.0484V81.5868H31.9566V87.6187Z" fill="white"/>
<path d="M33.7865 81.5868L34.9929 85.6397V81.5868H35.9011V87.6187H34.9251L33.6781 83.7556V87.6187H32.7699V81.5868H33.7865Z" fill="white"/>
<path d="M37.5954 82.495H36.633V81.5868H39.466V82.495H38.5036V87.6187H37.5954V82.495Z" fill="white"/>
<path d="M40.198 87.6187V81.5868H42.787V82.495H41.1062V84.1487H42.3261V85.0568H41.1062V86.7105H42.787V87.6187H40.198Z" fill="white"/>
<path d="M44.4271 81.5868L45.6335 85.6397V81.5868H46.5417V87.6187H45.5657L44.3187 83.7556V87.6187H43.4105V81.5868H44.4271Z" fill="white"/>
<path d="M48.4664 86.2361L48.2496 87.6187H47.3007L48.3173 81.5868H49.5644L50.5675 87.6187H49.6186L49.4017 86.2361H48.4664ZM48.9409 82.9694L48.602 85.3415H49.2797L48.9409 82.9694Z" fill="white"/>
<path d="M52.3702 81.5868L53.5766 85.6397V81.5868H54.4848V87.6187H53.5089L52.2618 83.7556V87.6187H51.3536V81.5868H52.3702Z" fill="white"/>
<path d="M56.7214 87.7001C56.3147 87.7001 55.9758 87.5645 55.7047 87.2799C55.4201 86.9952 55.2845 86.6563 55.2845 86.2632V82.9559C55.2845 82.5628 55.4201 82.2239 55.7047 81.9392C55.9894 81.6546 56.3283 81.519 56.7214 81.519C57.128 81.519 57.4669 81.6546 57.738 81.9392C58.0226 82.2239 58.1582 82.5628 58.1582 82.9559V83.6472H57.2093V82.9423C57.2093 82.7932 57.1551 82.6712 57.0602 82.5628C56.9518 82.4543 56.8298 82.4137 56.6807 82.4137C56.5316 82.4137 56.4096 82.4679 56.3147 82.5628C56.2063 82.6712 56.1656 82.7932 56.1656 82.9423V86.2497C56.1656 86.3988 56.2198 86.5208 56.3147 86.6157C56.4232 86.7241 56.5316 86.7648 56.6807 86.7648C56.8298 86.7648 56.9518 86.7106 57.0602 86.6157C57.1687 86.5072 57.2093 86.3852 57.2093 86.2497V85.4228H58.1582V86.2632C58.1582 86.6699 58.0226 87.0088 57.738 87.2799C57.4533 87.5645 57.1144 87.7001 56.7214 87.7001Z" fill="white"/>
<path d="M58.8901 87.6187V81.5868H61.4791V82.495H59.7983V84.1487H61.0183V85.0568H59.7983V86.7105H61.4791V87.6187H58.8901Z" fill="white"/>
<path d="M65.7354 86.1277C65.7489 86.5479 65.6269 86.9003 65.41 87.2121C65.2609 87.4154 65.0576 87.551 64.7865 87.6323C64.6374 87.673 64.4747 87.7001 64.285 87.7001C63.9326 87.7001 63.6343 87.6187 63.4039 87.4425C63.2141 87.2934 63.0515 87.1036 62.943 86.8461C62.8346 86.6021 62.7668 86.3175 62.7397 85.9921L63.6072 85.9244C63.6479 86.2768 63.7428 86.5208 63.8919 86.6834C64.0003 86.8054 64.1223 86.8597 64.2714 86.8461C64.4747 86.8326 64.6239 86.7377 64.7458 86.5615C64.8136 86.4666 64.8407 86.331 64.8407 86.1548C64.8407 85.8973 64.7323 85.6533 64.5019 85.4093C64.3256 85.2466 64.0546 84.9891 63.6886 84.6502C63.3904 84.3656 63.1735 84.0945 63.0515 83.864C62.9159 83.6065 62.8482 83.3218 62.8482 83.0236C62.8482 82.4679 63.0379 82.0612 63.4039 81.7766C63.6343 81.6139 63.919 81.519 64.2443 81.519C64.5696 81.519 64.8407 81.5868 65.0712 81.7359C65.2474 81.8444 65.3965 82.007 65.5049 82.2103C65.6134 82.4137 65.6811 82.6441 65.7082 82.9016L64.8407 83.0643C64.8136 82.8203 64.7458 82.6305 64.6239 82.495C64.5425 82.3866 64.4205 82.3459 64.2579 82.3459C64.0952 82.3459 63.9732 82.4137 63.8783 82.5628C63.8106 82.6848 63.7699 82.8339 63.7699 83.0101C63.7699 83.2812 63.8919 83.5658 64.1223 83.8505C64.2172 83.9589 64.3528 84.0945 64.529 84.23C64.7458 84.4062 64.8814 84.5282 64.9492 84.596C65.166 84.8264 65.3423 85.0433 65.4643 85.2602C65.5185 85.3686 65.5727 85.4635 65.5998 85.5448C65.6811 85.7617 65.7354 85.9515 65.7354 86.1277Z" fill="white"/>
<path d="M66.4944 87.6187V81.5868H69.0834V82.495H67.4026V84.1487H68.6225V85.0568H67.4026V86.7105H69.0834V87.6187H66.4944Z" fill="white"/>
<path d="M71.1302 81.5868C71.6453 81.5868 72.0113 81.7223 72.2417 82.007C72.445 82.251 72.5534 82.5899 72.5534 83.0236V83.9047C72.5534 84.3249 72.3908 84.6909 72.0655 84.9891L72.7432 87.6187H71.7673L71.2115 85.3415C71.1844 85.3415 71.1573 85.3415 71.1302 85.3415H70.6151V87.6187H69.7069V81.5868H71.1302ZM71.6724 83.0507C71.6724 82.6983 71.4962 82.5221 71.1573 82.5221H70.6151V84.4469H71.1573C71.3064 84.4469 71.4284 84.3926 71.5233 84.2978C71.6182 84.1893 71.6724 84.0673 71.6724 83.9318V83.0507Z" fill="white"/>
<path d="M74.1936 87.6187L73.1228 81.5868H74.0716L74.8307 86.2768L75.5897 81.5868H76.5386L75.4406 87.6187H74.1936Z" fill="white"/>
<path d="M78.2194 87.6187H77.3112V81.5868H78.2194V87.6187Z" fill="white"/>
<path d="M80.4559 87.7001C80.0493 87.7001 79.7104 87.5645 79.4393 87.2799C79.1547 86.9952 79.0191 86.6563 79.0191 86.2632V82.9559C79.0191 82.5628 79.1547 82.2239 79.4393 81.9392C79.724 81.6546 80.0628 81.519 80.4559 81.519C80.8626 81.519 81.2015 81.6546 81.4726 81.9392C81.7572 82.2239 81.8928 82.5628 81.8928 82.9559V83.6472H80.9439V82.9423C80.9439 82.7932 80.8897 82.6712 80.7948 82.5628C80.6864 82.4543 80.5644 82.4137 80.4153 82.4137C80.2662 82.4137 80.1442 82.4679 80.0493 82.5628C79.9409 82.6712 79.9002 82.7932 79.9002 82.9423V86.2497C79.9002 86.3988 79.9544 86.5208 80.0493 86.6157C80.1577 86.7241 80.2662 86.7648 80.4153 86.7648C80.5644 86.7648 80.6864 86.7106 80.7948 86.6157C80.9032 86.5072 80.9439 86.3852 80.9439 86.2497V85.4228H81.8928V86.2632C81.8928 86.6699 81.7572 87.0088 81.4726 87.2799C81.2015 87.5645 80.849 87.7001 80.4559 87.7001Z" fill="white"/>
<path d="M82.6383 87.6187V81.5868H85.2273V82.495H83.5464V84.1487H84.7664V85.0568H83.5464V86.7105H85.2273V87.6187H82.6383Z" fill="white"/>
<path d="M88.86 86.1277C88.8735 86.5479 88.7515 86.9003 88.5346 87.2121C88.3855 87.4154 88.1822 87.551 87.9111 87.6323C87.762 87.673 87.5993 87.7001 87.4096 87.7001C87.0572 87.7001 86.759 87.6187 86.5285 87.4425C86.3387 87.2934 86.1761 87.1036 86.0677 86.8461C85.9592 86.6021 85.8914 86.3175 85.8643 85.9921L86.7318 85.9244C86.7725 86.2768 86.8674 86.5208 87.0165 86.6834C87.1249 86.8054 87.2469 86.8597 87.396 86.8461C87.5994 86.8326 87.7485 86.7377 87.8705 86.5615C87.9382 86.4666 87.9653 86.331 87.9653 86.1548C87.9653 85.8973 87.8569 85.6533 87.6265 85.4093C87.4503 85.2466 87.1792 84.9891 86.8132 84.6502C86.515 84.3656 86.2981 84.0945 86.1761 83.864C86.0405 83.6065 85.9728 83.3218 85.9728 83.0236C85.9728 82.4679 86.1625 82.0612 86.5285 81.7766C86.759 81.6139 87.0436 81.519 87.3689 81.519C87.6942 81.519 87.9653 81.5868 88.1958 81.7359C88.372 81.8444 88.5211 82.007 88.6295 82.2103C88.738 82.4137 88.8057 82.6441 88.8328 82.9016L87.9653 83.0643C87.9382 82.8203 87.8704 82.6305 87.7485 82.495C87.6671 82.3866 87.5451 82.3459 87.3825 82.3459C87.2198 82.3459 87.0978 82.4137 87.0029 82.5628C86.9352 82.6848 86.8945 82.8339 86.8945 83.0101C86.8945 83.2812 87.0165 83.5658 87.2469 83.8505C87.3418 83.9589 87.4774 84.0945 87.6536 84.23C87.8704 84.4062 88.006 84.5282 88.0738 84.596C88.2907 84.8264 88.4669 85.0433 88.5889 85.2602C88.6431 85.3686 88.6973 85.4635 88.7244 85.5448C88.8057 85.7617 88.86 85.9515 88.86 86.1277Z" fill="white"/>
<path d="M31.6584 54.3414C31.7126 54.3685 31.7533 54.3821 31.8075 54.3821C31.7533 54.3821 31.7126 54.3685 31.6584 54.3414Z" fill="white"/>
<path d="M53.2107 48.7975C53.2513 48.811 53.3055 48.8246 53.3598 48.8246C53.3055 48.8382 53.2513 48.8246 53.2107 48.7975Z" fill="white"/>
<path d="M64.407 9.3393L63.8783 9.16309L65.9929 7.34674L64.7865 6.89943L63.6072 9.06821L62.6448 8.75644L64.651 6.91298L63.4446 6.47923L62.3873 8.67512L61.4249 8.36335L63.3226 6.49278L62.1026 6.05903L61.1538 8.28203L60.1779 7.94315L61.9671 6.04547L60.7472 5.61172L59.9203 7.86182L58.9173 7.53651L60.5845 5.62527L59.3646 5.19151L58.6462 7.45518L57.6702 7.12986L59.229 5.19151L58.0091 4.75776L57.3991 7.03498L56.4232 6.70966L57.86 4.7442L56.64 4.324L56.1385 6.62833L55.1626 6.30301L56.4909 4.324L55.271 3.9038L54.8779 6.22168L53.902 5.89637L55.1219 3.89025L53.902 3.47005L53.6715 5.80148L52.7091 5.48972L53.8206 3.45649L52.6007 3.03629L52.4109 5.39484L51.4485 5.08308L52.4516 3.02274L51.2316 2.60253L51.1503 4.97464L50.2015 4.66287L51.1096 2.58898L49.8897 2.16878L49.9033 4.56799L48.9544 4.25623L49.7542 2.15522L48.5342 1.73502L48.6427 4.14779L47.7074 3.83603L48.3987 1.70791L47.1787 1.30127L47.3821 3.72759L46.501 3.44294L47.0974 1.27416L45.8775 0.867512L46.1757 3.3345L45.2946 3.04985L45.7961 0.826847L44.5762 0.420201L44.9828 2.94141L44.1153 2.65675L44.5084 0.393091L43.2885 0L43.79 2.56187L43.2478 2.38566C42.9225 2.27722 42.5836 2.45343 42.4752 2.77875C42.3668 3.10406 42.543 3.44294 42.8683 3.55138L52.8176 6.8181L47.5718 22.5417C47.6803 22.474 47.7887 22.4062 47.8971 22.352C48.2767 22.1622 48.6698 22.0267 49.0629 21.9047L53.9697 7.18408L64.0139 10.4779C64.0952 10.505 64.1765 10.5186 64.2579 10.505C64.5019 10.4779 64.7052 10.3288 64.7865 10.0848C64.8949 9.77306 64.7323 9.43419 64.407 9.3393Z" fill="white"/>
<path d="M53.4953 21.9859C53.1158 21.8774 52.7227 21.8096 52.316 21.769C51.3672 21.6741 50.3777 21.769 49.3882 22.0536C48.9138 22.1892 48.4393 22.3654 47.992 22.5958C47.7887 22.6907 47.5854 22.8127 47.3278 22.9754C47.0839 23.138 46.8941 23.2871 46.7043 23.4498C46.6365 23.5176 46.5823 23.6124 46.5823 23.7073C46.5823 23.8158 46.6094 23.9107 46.6772 23.9784C46.6908 23.992 46.6908 24.0055 46.7043 24.0055C46.8534 24.1411 47.0703 24.1275 47.2194 24.0055C47.233 23.992 47.2465 23.9784 47.2465 23.9784C47.3685 23.8293 47.5312 23.6802 47.7209 23.5176C47.8836 23.382 48.0734 23.2329 48.2767 23.1109C48.6698 22.8669 49.09 22.65 49.5237 22.4603C50.4319 22.0943 51.3672 21.9045 52.3025 21.891C52.7091 21.891 53.1022 21.9181 53.4953 21.9859Z" fill="white"/>
<path d="M51.5841 23.1653C51.5027 23.1924 51.4214 23.2059 51.3401 23.2331C50.7843 23.3957 50.2421 23.6668 49.7135 24.0057C49.1849 24.3446 48.724 24.7376 48.3038 25.1714C48.0869 25.4018 47.8836 25.6458 47.7074 25.8898C47.5312 26.1474 47.3685 26.4185 47.2194 26.6895C46.9347 27.2453 46.7314 27.8417 46.6094 28.4652C46.5417 28.7906 46.501 29.1023 46.4874 29.4141C46.4739 29.5767 46.4739 29.7394 46.4739 29.8885C46.4739 29.9698 46.4739 30.0512 46.4874 30.1325C46.4874 30.1731 46.4874 30.2138 46.501 30.2545L46.5145 30.3494V30.39C46.5281 30.4714 46.5823 30.5662 46.6501 30.634C46.7585 30.7289 46.8941 30.7696 47.0296 30.7425C47.2736 30.7018 47.4363 30.4714 47.3956 30.2274L47.3821 30.146L47.3685 30.0512C47.355 29.9698 47.3414 29.9021 47.3414 29.8343C47.3278 29.6987 47.3143 29.5496 47.3143 29.4141C47.3007 29.143 47.3143 28.8583 47.3414 28.5737C47.3956 28.0044 47.5312 27.4351 47.7345 26.9064C47.8429 26.6489 47.9649 26.3778 48.114 26.1338C48.2496 25.8898 48.4122 25.6458 48.602 25.4154C48.9544 24.9681 49.3882 24.5343 49.849 24.1683C50.337 23.7753 50.8521 23.477 51.3807 23.2602C51.4214 23.2195 51.5027 23.1924 51.5841 23.1653Z" fill="white"/>
<path d="M49.6322 25.6052C49.9033 25.2528 50.2015 24.9546 50.5268 24.6699L49.3882 24.7513C49.1577 24.9817 48.9273 25.2121 48.7375 25.4697C48.5749 25.6865 48.4122 25.917 48.2767 26.161C48.1411 26.4049 48.0191 26.6489 47.9243 26.9065C47.8836 27.0149 47.8565 27.1234 47.8294 27.2182L48.7918 27.1505C48.9951 26.5947 49.2662 26.0661 49.6322 25.6052Z" fill="white"/>
<path d="M50.7843 24.6563C50.459 25.0087 50.1744 25.3882 49.9304 25.7949C49.6864 26.2151 49.4966 26.6488 49.3611 27.1097L50.2286 27.0419C50.2421 26.9606 50.2557 26.8793 50.2828 26.7979C50.4048 26.3777 50.5675 25.9847 50.7843 25.6322C50.9877 25.2662 51.2316 24.9409 51.5027 24.6292C51.5163 24.6156 51.5298 24.6021 51.5434 24.5885L50.7843 24.6563Z" fill="white"/>
<path d="M49.1849 26.8115C48.9409 27.3131 48.7647 27.8417 48.6562 28.3974C48.4665 29.3463 48.48 30.3493 48.6833 31.366C48.7918 31.8946 48.9409 32.369 49.1306 32.8163C49.3069 33.2365 49.5508 33.7245 49.9575 34.1718C49.971 34.1989 49.9846 34.1989 49.9982 34.2125C50.1744 34.3616 50.4319 34.3616 50.5946 34.2125C50.6895 34.1312 50.7437 34.0227 50.7437 33.9007C50.7572 33.7787 50.7166 33.6567 50.6352 33.5754C50.6217 33.5618 50.6081 33.5483 50.5946 33.5347L50.5539 33.5076C50.4319 33.3992 50.2964 33.2501 50.1473 33.0603L50.0524 32.9248C50.0253 32.8977 50.0117 32.857 49.9846 32.8299L49.9575 32.7892C49.9168 32.7214 49.8626 32.6537 49.8219 32.5723L49.7813 32.491C49.5644 32.1115 49.3746 31.6777 49.212 31.2169C48.9138 30.2951 48.7782 29.3327 48.846 28.411C48.8867 27.8824 49.0086 27.3266 49.1849 26.8115Z" fill="white"/>
<path d="M46.1757 25.7542C45.8775 26.0388 45.6335 26.3235 45.4437 26.6217L45.4166 26.6624C45.3759 26.7301 45.3217 26.7979 45.2946 26.8657L45.2133 27.0148L45.1455 27.1503C45.1184 27.191 45.1048 27.2452 45.0913 27.2859L45.0777 27.3265C45.0642 27.3537 45.0506 27.3943 45.0371 27.4214L45.0235 27.4621C45.01 27.5028 44.9964 27.5299 44.9828 27.5705L44.9557 27.6519L44.9422 27.679C44.9422 27.6925 44.9286 27.7061 44.9286 27.7332C44.9286 27.801 44.9557 27.8823 45.0235 27.9365C45.0642 27.9772 45.132 28.0043 45.1862 28.0043C45.2539 28.0043 45.3353 27.9907 45.3895 27.9365C45.4437 27.8959 45.4708 27.8416 45.4844 27.7739V27.7603C45.4844 27.7332 45.4844 27.7196 45.4844 27.6925C45.4844 27.6519 45.4844 27.6112 45.4979 27.5705C45.4979 27.5163 45.5115 27.4756 45.5115 27.435C45.525 27.3672 45.5386 27.313 45.5386 27.2588L45.5657 27.1503L45.6064 27.0148C45.6199 26.947 45.647 26.8792 45.6741 26.7979L45.6877 26.7572C45.8097 26.4319 45.9724 26.0931 46.2028 25.7677L46.2706 25.6729L46.1757 25.7542Z" fill="white"/>
<path d="M50.9741 25.7677C50.7708 26.1202 50.6081 26.4997 50.4997 26.8792C50.3912 27.2588 50.3235 27.6654 50.2964 28.0992C50.2964 28.1941 50.3235 28.2754 50.3912 28.3296C50.4455 28.3703 50.4997 28.3974 50.5539 28.3974C50.703 28.4109 50.8386 28.2889 50.8521 28.1398C50.8521 28.1127 50.8521 28.0992 50.8521 28.0721C50.7843 27.679 50.7708 27.2994 50.7843 26.9335C50.8114 26.5539 50.8792 26.1608 50.9877 25.7813C51.0012 25.7406 51.0148 25.7 51.0283 25.6729C51.0148 25.7 51.0012 25.7271 50.9741 25.7677Z" fill="white"/>
<path d="M21.6956 45.4222C21.8582 45.4087 21.9938 45.4629 22.1022 45.5578C22.2107 45.6662 22.2784 45.7882 22.292 45.9238C22.5089 50.2478 22.7122 54.5853 22.9291 58.9093C22.9426 59.0584 22.8884 59.1804 22.78 59.2889C22.6715 59.3973 22.5495 59.4651 22.4004 59.4651C21.2076 59.5328 20.0012 59.5871 18.8084 59.6548C18.6593 59.6684 18.5237 59.6142 18.4018 59.5193C18.2933 59.4109 18.2255 59.2889 18.2255 59.1533C18.09 56.8219 17.968 54.4769 17.8324 52.1454C16.6532 54.6395 15.4875 57.1201 14.3488 59.6142C14.3082 59.6955 14.2404 59.7768 14.1455 59.8446C14.0506 59.9124 13.9693 59.953 13.888 59.953C13.3187 59.9937 12.7494 60.0344 12.1936 60.0615C12.1123 60.0615 12.0174 60.0479 11.9225 59.9937C11.8276 59.9395 11.7463 59.8717 11.6921 59.7904C10.2417 57.4725 8.77779 55.1546 7.30031 52.8367C7.46297 55.1682 7.63919 57.4996 7.80184 59.8175C7.8154 59.9666 7.77473 60.0886 7.6663 60.2106C7.57141 60.319 7.43586 60.3868 7.28676 60.4004C6.09393 60.4817 4.9011 60.5766 3.69472 60.6715C3.54562 60.685 3.41007 60.6443 3.28807 60.5359C3.16608 60.441 3.11186 60.319 3.0983 60.1835C2.75943 55.8595 2.42056 51.549 2.08169 47.225C2.06813 47.0759 2.1088 46.9539 2.21724 46.8319C2.32568 46.7235 2.44767 46.6557 2.61033 46.6422C4.03359 46.5337 5.47041 46.4253 6.89367 46.3168C6.96144 46.3168 7.05633 46.3304 7.16477 46.3846C7.2732 46.4253 7.34098 46.4931 7.3952 46.5608C9.17089 48.9872 10.933 51.4135 12.6816 53.8534C14.0777 51.2102 15.501 48.5805 16.9378 45.9509C16.9785 45.8831 17.0463 45.8153 17.1411 45.7475C17.236 45.6933 17.3309 45.6527 17.4122 45.6527C18.822 45.5713 20.2723 45.49 21.6956 45.4222Z" fill="white"/>
<path d="M38.2461 58.8824C38.1647 58.8824 38.0699 58.8553 37.9614 58.8011C37.853 58.7469 37.7852 58.6791 37.7445 58.5978C37.4192 58.0149 37.0939 57.4456 36.7822 56.8627C34.532 56.9305 32.2819 56.9983 30.0183 57.0932C29.7336 57.6896 29.449 58.286 29.1643 58.896C29.1237 58.9773 29.0559 59.0586 28.961 59.1264C28.8661 59.1942 28.7712 59.2213 28.6763 59.2348C27.4428 59.2891 26.1958 59.3433 24.9623 59.3975C24.7183 59.4111 24.5421 59.3297 24.4337 59.1671C24.3252 59.0044 24.3117 58.8146 24.4201 58.6113C26.6838 54.1789 28.9881 49.7464 31.3466 45.3275C31.3738 45.2598 31.4551 45.192 31.5635 45.1242C31.672 45.0564 31.7668 45.0293 31.8346 45.0293C32.919 44.9887 34.0034 44.9616 35.0878 44.9209C35.1691 44.9209 35.264 44.948 35.3724 45.0022C35.4673 45.0564 35.5487 45.1242 35.6029 45.2055C38.097 49.4618 40.5504 53.7316 42.9496 58.0149C43.0445 58.2182 43.0581 58.3944 42.9632 58.5707C42.8683 58.7333 42.7056 58.8146 42.4616 58.8282C41.0384 58.8146 39.6422 58.8417 38.2461 58.8824ZM31.672 53.8536C32.797 53.8129 33.9085 53.7722 35.0336 53.7451C34.4643 52.715 33.8814 51.6983 33.2985 50.6682C32.7699 51.7254 32.2142 52.7963 31.672 53.8536Z" fill="white"/>
<path d="M61.1267 44.5819C61.3978 44.5819 61.574 44.6904 61.6824 44.9072C61.7773 45.1106 61.7367 45.3139 61.574 45.5037C59.839 47.4284 58.1311 49.3532 56.4232 51.278C58.1717 53.4333 59.9203 55.602 61.6418 57.7844C61.7773 57.9741 61.8044 58.1639 61.7096 58.3672C61.6147 58.5705 61.452 58.6654 61.1945 58.6519C59.6763 58.6383 58.1582 58.6248 56.6536 58.6248C56.5858 58.6248 56.518 58.5977 56.4096 58.557C56.3012 58.5028 56.2334 58.4621 56.2063 58.4079C55.0948 57.0117 53.9697 55.6156 52.8447 54.233C51.6247 55.6427 50.4048 57.0524 49.1984 58.4621C49.1713 58.5163 49.1171 58.557 49.0222 58.5977C48.9273 58.6383 48.846 58.6654 48.7918 58.6654C47.3821 58.679 45.9724 58.6925 44.5491 58.7197C44.4135 58.7197 44.3051 58.6925 44.2102 58.6383C44.1153 58.5841 44.0611 58.5028 44.0069 58.4214C43.9662 58.3266 43.9391 58.2317 43.9527 58.1368C43.9662 58.0284 44.0069 57.9335 44.0882 57.8386C45.9317 55.6562 47.7887 53.4739 49.6593 51.2916C47.87 49.3803 46.0537 47.4691 44.2373 45.5579C44.156 45.463 44.1018 45.3546 44.0747 45.2597C44.0476 45.1512 44.0611 45.0563 44.1018 44.9615C44.1424 44.8666 44.2102 44.7988 44.3051 44.731C44.4 44.6633 44.5084 44.6361 44.644 44.6361C46.257 44.609 47.8565 44.5819 49.4695 44.5684C49.5373 44.5684 49.6051 44.5955 49.6999 44.6361C49.7948 44.6768 49.849 44.7175 49.8762 44.7446C51.0012 45.9239 52.1127 47.1031 53.2242 48.2824C54.295 47.0896 55.3659 45.9103 56.4367 44.7175C56.4638 44.6768 56.518 44.6497 56.6265 44.609C56.7214 44.5684 56.8027 44.5413 56.8705 44.5413C58.2802 44.5684 59.7034 44.5819 61.1267 44.5819Z" fill="white"/>
<path d="M63.6479 58.6926C63.5124 58.6926 63.4039 58.6384 63.309 58.53C63.2141 58.4215 63.1735 58.2996 63.1735 58.1504C63.2141 53.8129 63.2684 49.4889 63.309 45.1513C63.309 45.0022 63.3633 44.8802 63.4581 44.7718C63.553 44.6633 63.6615 44.6091 63.797 44.6091C64.9356 44.6227 66.0742 44.6362 67.2128 44.6634C67.3484 44.6634 67.4568 44.7176 67.5517 44.826C67.6466 44.9344 67.6873 45.0564 67.6873 45.2055C67.6195 49.5431 67.5381 53.8671 67.4704 58.2047C67.4704 58.3538 67.4162 58.4758 67.3348 58.5842C67.2399 58.6926 67.1315 58.7469 66.996 58.7333C65.8709 58.7198 64.7594 58.7062 63.6479 58.6926Z" fill="white"/>
<path d="M88.8464 45.3547C89.0091 45.3683 89.1311 45.4225 89.2395 45.5309C89.3479 45.6394 89.3886 45.7749 89.3886 45.9104C89.1853 50.2345 88.9684 54.572 88.7515 58.896C88.738 59.0451 88.6837 59.1671 88.5753 59.262C88.4669 59.3704 88.3313 59.4111 88.1687 59.4111C86.9758 59.3569 85.7695 59.3027 84.5766 59.2484C84.414 59.2349 84.292 59.1807 84.1835 59.0722C84.0886 58.9638 84.0344 58.8418 84.0344 58.6927C84.1293 56.3613 84.2378 54.0163 84.3191 51.6713C82.9094 54.0298 81.4997 56.4019 80.1171 58.774C80.0629 58.8554 79.9951 58.9231 79.8866 58.9773C79.7918 59.0316 79.6969 59.0587 79.6155 59.0587C79.0598 59.0316 78.4905 59.018 77.9212 59.0045C77.8399 59.0045 77.745 58.9638 77.6501 58.9096C77.5552 58.8418 77.4874 58.774 77.4468 58.6927C76.2268 56.2393 74.9933 53.7858 73.7598 51.346C73.6921 53.6774 73.6378 56.0088 73.5701 58.3403C73.5701 58.4894 73.5023 58.6114 73.3939 58.7198C73.2854 58.8282 73.1499 58.8689 73.0008 58.8689C71.8079 58.8418 70.6016 58.8147 69.4087 58.7876C69.2461 58.7876 69.1241 58.7198 69.0156 58.6249C68.9072 58.5165 68.8665 58.3809 68.8665 58.2454C68.9479 53.9078 69.0292 49.5838 69.1105 45.2463C69.1105 45.0972 69.1783 44.9752 69.2867 44.8667C69.3952 44.7583 69.5307 44.7041 69.6934 44.7176C71.1302 44.7447 72.5535 44.7854 73.9903 44.8125C74.058 44.8125 74.1529 44.8396 74.2478 44.8938C74.3563 44.9481 74.424 45.0158 74.4511 45.0836C75.9828 47.6726 77.501 50.2616 78.992 52.8641C80.6457 50.37 82.313 47.8895 83.9938 45.4089C84.048 45.3411 84.1158 45.2734 84.2242 45.2327C84.3191 45.1785 84.414 45.1649 84.5088 45.1649C85.9728 45.2192 87.4096 45.2869 88.8464 45.3547Z" fill="white"/>
<path d="M104.001 60.3598C103.919 60.3598 103.825 60.3191 103.73 60.2514C103.635 60.1836 103.567 60.1023 103.54 60.0209C103.282 59.411 103.011 58.801 102.754 58.2046C100.504 58.0555 98.2535 57.9064 96.0034 57.7708C95.6645 58.3401 95.3256 58.9094 94.9868 59.4787C94.9325 59.5601 94.8512 59.6278 94.7563 59.6821C94.6614 59.7363 94.553 59.7634 94.4717 59.7498C93.2382 59.6821 91.9911 59.6143 90.7576 59.5465C90.5137 59.533 90.351 59.4381 90.2426 59.2619C90.1477 59.0856 90.1612 58.9094 90.2832 58.7061C92.9671 54.5177 95.6916 50.3292 98.4704 46.1679C98.511 46.1001 98.5924 46.0323 98.7008 45.9781C98.8092 45.9239 98.9041 45.8968 98.9854 45.9103C100.07 45.9781 101.141 46.0459 102.225 46.1136C102.306 46.1136 102.401 46.1543 102.496 46.2221C102.591 46.2899 102.659 46.3712 102.699 46.4525C104.76 50.9256 106.793 55.4258 108.759 59.9125C108.84 60.1158 108.826 60.3056 108.718 60.4547C108.609 60.6038 108.433 60.6716 108.203 60.658C106.793 60.5631 105.397 60.4682 104.001 60.3598ZM97.9553 54.721C99.0803 54.7888 100.192 54.8701 101.317 54.9379C100.842 53.867 100.368 52.7826 99.8936 51.7118C99.243 52.7149 98.5924 53.7179 97.9553 54.721Z" fill="white"/>
<path d="M16.7616 73.7656C18.5644 73.6436 20.3537 73.5216 22.1429 73.4132C22.2513 73.3996 22.3598 73.4403 22.4547 73.5216C22.5495 73.5894 22.6038 73.6978 22.6038 73.8198C22.658 74.6331 22.6986 75.4464 22.7529 76.2597C22.7664 76.3681 22.7258 76.4766 22.6444 76.5579C22.5631 76.6528 22.4682 76.6934 22.3598 76.707C19.4048 76.8832 16.4634 77.0865 13.5084 77.3305C13.3865 77.3441 13.278 77.3034 13.1831 77.2221C13.0882 77.1408 13.0476 77.0459 13.034 76.9374C12.7629 73.5216 12.4918 70.1193 12.2343 66.7035C12.2207 66.5951 12.2614 66.4866 12.3292 66.3917C12.3969 66.2969 12.5054 66.2426 12.6274 66.2426C13.6711 66.1613 14.7148 66.08 15.7586 66.0122C15.867 65.9987 15.9754 66.0393 16.0839 66.1206C16.1788 66.202 16.233 66.2969 16.2465 66.4053C16.4227 68.8452 16.5854 71.3122 16.7616 73.7656Z" fill="white"/>
<path d="M24.271 76.5713C24.1626 76.5713 24.0812 76.5442 23.9999 76.4629C23.9321 76.3816 23.8915 76.2867 23.8779 76.1782C23.6746 72.7624 23.4713 69.3466 23.2815 65.9308C23.2679 65.8223 23.3086 65.7139 23.3764 65.6326C23.4442 65.5377 23.5255 65.497 23.6339 65.4835C24.5285 65.4292 25.4232 65.375 26.3178 65.3344C26.4262 65.3344 26.5211 65.3615 26.5889 65.4428C26.6702 65.5241 26.7109 65.619 26.7109 65.7274C26.8871 69.1433 27.0769 72.5591 27.2531 75.9749C27.2531 76.0834 27.226 76.1918 27.1582 76.2731C27.0904 76.368 27.0091 76.4087 26.9006 76.4087C26.0331 76.4764 25.1521 76.5171 24.271 76.5713Z" fill="white"/>
<path d="M43.3698 64.6838C43.4918 64.6838 43.6003 64.7245 43.6951 64.8058C43.79 64.8872 43.8307 64.982 43.8307 65.104C43.8985 68.5199 43.9798 71.9492 44.0476 75.3651C44.0476 75.4735 44.0069 75.582 43.9256 75.6633C43.8442 75.7446 43.7358 75.7988 43.6138 75.7988C42.665 75.8259 41.7297 75.8395 40.7808 75.8666C40.6588 75.8666 40.5504 75.8259 40.4691 75.7446C40.3877 75.6633 40.3335 75.5684 40.3335 75.4464C40.2793 73.6029 40.2251 71.7459 40.1709 69.9025C39.1814 71.8408 38.219 73.7792 37.2566 75.7311C37.2159 75.7988 37.1617 75.853 37.0939 75.9073C37.0261 75.9615 36.9448 75.975 36.8906 75.9886C36.4433 76.0022 35.996 76.0157 35.5622 76.0428C35.4944 76.0428 35.4267 76.0157 35.3453 75.975C35.264 75.9344 35.2098 75.8802 35.1691 75.8124C34.0712 73.9418 32.9732 72.0848 31.8617 70.2278C31.9431 72.0712 32.0244 73.9147 32.1057 75.7582C32.1057 75.8666 32.0786 75.975 31.9973 76.0564C31.916 76.1513 31.8075 76.1919 31.6855 76.1919C30.7367 76.2326 29.8014 76.2733 28.8526 76.3275C28.7306 76.341 28.6221 76.3004 28.5272 76.219C28.4324 76.1377 28.3917 76.0428 28.3781 75.9344C28.2019 72.5186 28.0393 69.1027 27.863 65.6869C27.863 65.5785 27.8902 65.47 27.9715 65.3887C28.0528 65.2938 28.1613 65.2531 28.2832 65.2396C29.4083 65.1854 30.5334 65.1311 31.672 65.0769C31.7262 65.0769 31.794 65.0905 31.8888 65.1311C31.9702 65.1718 32.0379 65.2125 32.0651 65.2803C33.4205 67.2322 34.7489 69.1841 36.0773 71.1495C37.243 69.1027 38.4087 67.0424 39.6016 65.0092C39.6422 64.9549 39.6964 64.9007 39.7642 64.8465C39.8456 64.8058 39.9133 64.7787 39.9811 64.7787C41.1062 64.7381 42.2312 64.7109 43.3698 64.6838Z" fill="white"/>
<path d="M49.0222 71.7325C49.0358 72.9118 49.0493 74.091 49.0629 75.2703C49.0629 75.3787 49.0222 75.4872 48.9409 75.5685C48.8595 75.6498 48.7511 75.7041 48.6291 75.7041C47.6261 75.7176 46.623 75.7312 45.6199 75.7583C45.5115 75.7583 45.4031 75.7176 45.3082 75.6363C45.2133 75.555 45.1726 75.4601 45.1726 75.3381C45.1048 71.9223 45.0371 68.4929 44.9693 65.077C44.9693 64.9686 45.01 64.8602 45.0913 64.7788C45.1726 64.6975 45.2811 64.6433 45.3895 64.6433C46.8128 64.6162 48.236 64.5891 49.6593 64.5755C50.581 64.562 51.3807 64.6162 52.072 64.7382C52.7633 64.8602 53.3462 65.0635 53.8071 65.3481C54.2679 65.6328 54.6204 65.9988 54.8508 66.4461C55.0948 66.8934 55.2032 67.4356 55.2032 68.0727C55.2032 69.3333 54.7966 70.255 54.0104 70.8514C53.2107 71.4478 52.0314 71.7325 50.4726 71.7325C49.9982 71.7325 49.5102 71.7325 49.0222 71.7325ZM48.9544 67.1781C48.968 67.8558 48.968 68.52 48.9815 69.1977C49.2255 69.2113 49.4695 69.2113 49.7135 69.2248C50.8657 69.2519 51.4485 68.9131 51.4485 68.1811C51.4485 67.8151 51.2994 67.544 51.0148 67.3543C50.7301 67.1645 50.3235 67.0832 49.7948 67.1374C49.5102 67.1374 49.2255 67.1509 48.9544 67.1781Z" fill="white"/>
<path d="M56.7349 75.6633C56.6265 75.6633 56.5451 75.6227 56.4774 75.5413C56.4096 75.46 56.3689 75.3516 56.3689 75.2431C56.3689 71.8273 56.3689 68.3979 56.3825 64.9821C56.3825 64.8736 56.4232 64.7652 56.4909 64.6839C56.5587 64.6026 56.6536 64.5619 56.762 64.5619C57.6567 64.5619 58.5648 64.5619 59.4594 64.5754C59.5679 64.5754 59.6628 64.6161 59.7305 64.711C59.7983 64.7923 59.839 64.9008 59.839 65.0092C59.8119 68.425 59.7848 71.8544 59.7712 75.2702C59.7712 75.3787 59.7305 75.4871 59.6628 75.5684C59.595 75.6498 59.5001 75.6904 59.4052 75.6904C58.4971 75.6633 57.616 75.6633 56.7349 75.6633Z" fill="white"/>
<path d="M61.6689 75.6904C61.5605 75.6904 61.452 75.6498 61.3707 75.5549C61.2894 75.4736 61.2487 75.3651 61.2487 75.2567C61.2758 71.8409 61.3165 68.4115 61.3436 64.9956C61.3436 64.8872 61.3842 64.7788 61.4791 64.6974C61.5605 64.6161 61.6689 64.5754 61.7773 64.5754C64.5967 64.6025 67.4026 64.6568 70.222 64.7245C70.3305 64.7245 70.4389 64.7788 70.5202 64.8601C70.6015 64.9414 70.6422 65.0499 70.6422 65.1583C70.6287 65.8496 70.6016 66.5409 70.588 67.2322C70.588 67.3542 70.5338 67.4626 70.4524 67.544C70.3711 67.6253 70.2627 67.6659 70.1407 67.6659C68.5277 67.6253 66.9146 67.5982 65.3016 67.5575C65.288 67.937 65.288 68.3166 65.2745 68.6961C66.6435 68.7232 68.0261 68.7503 69.3952 68.7775C69.5036 68.7775 69.612 68.8317 69.6934 68.913C69.7747 68.9943 69.8154 69.1028 69.8154 69.2112C69.8018 69.889 69.7883 70.5667 69.7611 71.258C69.7611 71.38 69.7069 71.4884 69.6256 71.5698C69.5443 71.6511 69.4358 71.6917 69.3274 71.6917C67.9584 71.6646 66.5893 71.6375 65.2203 71.624C65.2067 72.0171 65.2067 72.4237 65.1932 72.8168C66.9146 72.8439 68.6496 72.8846 70.3711 72.9252C70.4931 72.9252 70.6015 72.9795 70.6693 73.0608C70.7507 73.1421 70.7778 73.2506 70.7778 73.3726C70.7507 74.0638 70.7371 74.7551 70.7235 75.4329C70.7235 75.5413 70.6829 75.6498 70.6015 75.7311C70.5202 75.8124 70.4118 75.8531 70.2898 75.8531C67.4297 75.7718 64.5561 75.7175 61.6689 75.6904Z" fill="white"/>
<path d="M83.0314 75.8938C83.0314 76.0022 82.9772 76.0971 82.8823 76.1785C82.7874 76.2598 82.6925 76.3005 82.5841 76.2869C79.1547 76.1242 75.7253 75.9887 72.3095 75.8803C72.1875 75.8803 72.079 75.826 71.9977 75.7447C71.9164 75.6634 71.8757 75.5549 71.8757 75.4465C71.9028 74.7281 71.9164 74.0097 71.9435 73.2913C71.9435 73.2642 71.9706 73.2099 71.9977 73.1422C72.0384 73.0744 72.0655 73.0202 72.079 72.9931C73.9225 71.2852 75.7931 69.5772 77.6772 67.8829C76.0371 67.8151 74.3834 67.7609 72.7432 67.7067C72.6348 67.7067 72.5263 67.6524 72.445 67.5711C72.3637 67.4898 72.323 67.3813 72.323 67.2594C72.3501 66.5681 72.3637 65.8768 72.3908 65.1855C72.3908 65.077 72.445 64.9821 72.5263 64.8873C72.6212 64.8059 72.7161 64.7653 72.8381 64.7653C76.2268 64.8737 79.602 64.9957 82.9771 65.1584C83.0856 65.1584 83.194 65.2126 83.2754 65.3075C83.3567 65.4023 83.3974 65.4972 83.3838 65.6057C83.3567 66.2834 83.316 66.9611 83.2889 67.6253C83.2889 67.666 83.2618 67.7202 83.2347 67.788C83.2076 67.8558 83.1669 67.91 83.1398 67.9371C81.2692 69.5772 79.4122 71.2174 77.5688 72.8711C79.2902 72.9388 81.0117 73.0202 82.7467 73.1015C82.8552 73.1015 82.9636 73.1557 83.0314 73.2506C83.1127 73.3455 83.1534 73.4404 83.1398 73.5488C83.1127 74.3621 83.072 75.1347 83.0314 75.8938Z" fill="white"/>
<path d="M95.0681 77.0594C95.0003 77.0594 94.9325 77.0323 94.8512 76.9781C94.7699 76.9239 94.7292 76.8696 94.7021 76.8019C94.4988 76.3275 94.2819 75.8395 94.0786 75.3651C92.3029 75.2431 90.5272 75.1211 88.7515 75.0262C88.4804 75.4735 88.2093 75.9208 87.9382 76.3681C87.8976 76.4359 87.8298 76.4901 87.762 76.5308C87.6807 76.5714 87.6129 76.5985 87.5316 76.585C86.5556 76.5308 85.5797 76.4766 84.6037 76.4223C84.414 76.4088 84.2784 76.341 84.1971 76.2055C84.1158 76.0699 84.1293 75.9208 84.2377 75.7717C86.3523 72.4643 88.5211 69.1569 90.7034 65.8766C90.7305 65.8224 90.7983 65.7682 90.8932 65.7275C90.9881 65.6869 91.0558 65.6598 91.1101 65.6733C91.964 65.7275 92.818 65.7818 93.6719 65.836C93.7397 65.836 93.8075 65.8631 93.8888 65.9173C93.9566 65.9715 94.0108 66.0257 94.0515 66.0935C95.6781 69.6313 97.2775 73.1692 98.8363 76.7205C98.9041 76.8832 98.8906 77.0323 98.8092 77.1543C98.7279 77.2763 98.5924 77.3305 98.4026 77.317C97.2775 77.2221 96.166 77.1407 95.0681 77.0594ZM90.2968 72.5999C91.1778 72.6541 92.0725 72.7083 92.9535 72.7761C92.574 71.9221 92.208 71.0817 91.8285 70.2278C91.3134 71.0139 90.7983 71.8137 90.2968 72.5999Z" fill="white"/>
<path d="M61.6147 55.1818L61.208 54.6668C60.3541 53.6095 59.5001 52.5386 58.6462 51.4814L58.5242 51.3323L58.6597 51.1832C59.5272 50.2072 60.4083 49.2177 61.2894 48.2417L61.696 47.7809L61.6147 55.1818Z" fill="white"/>
<path d="M59.1206 51.3458C59.7983 52.1862 60.4761 53.0402 61.1538 53.8806L61.208 49.0144C60.5167 49.787 59.8254 50.5597 59.1206 51.3458Z" fill="white"/>
<path d="M43.8442 26.6218L40.9977 23.5991L35.7791 23.0975L35.5893 24.3446L37.9885 24.4937L38.8425 27.2724L41.3637 27.6113L41.6483 26.3236L43.8442 26.6218Z" fill="white"/>
<path d="M37.5006 24.9818L35.9282 24.8191C35.9282 24.8191 35.8062 27.0828 34.2203 27.9503L34.1661 28.5602C34.1661 28.5602 36.7686 27.9503 37.5006 24.9818Z" fill="white"/>
<path d="M35.5758 23.0704L35.3318 24.4395L34.41 24.0057L34.5049 23.45L35.5758 23.0704Z" fill="white"/>
<path d="M41.9466 27.8959L38.3274 27.6112L38.2596 28.7905L41.7839 29.0209L41.9466 27.8959Z" fill="white"/>
<path d="M41.7161 29.3869L38.5578 29.1429C38.5578 29.1429 37.9479 29.5225 38.4087 30.0376C38.8696 30.5527 38.4765 30.8915 38.2325 30.9051C37.9885 30.9186 37.7445 31.5286 38.3681 31.8539C38.9916 32.1792 38.3003 32.857 37.7852 33.0061C37.2701 33.1552 36.4839 34.226 36.3077 35.8526C36.1315 37.4792 35.996 40.5019 35.996 40.5019C35.996 40.5019 38.8154 41.8303 42.2583 41.7219L43.0038 41.1932C43.0038 41.1932 43.2478 36.3135 43.2885 35.5002C43.2885 34.6869 42.8547 32.003 41.7161 29.3869Z" fill="white"/>
<path d="M48.4393 23.3279C48.2496 23.4499 48.0734 23.5719 47.9107 23.7075C47.748 23.843 47.5989 23.9921 47.4634 24.1412C47.4498 24.1548 47.4363 24.1683 47.4227 24.1819C47.3007 24.3039 47.1381 24.3581 46.9754 24.3445L46.7721 24.9545C46.8263 24.9138 46.8805 24.8732 46.9347 24.8461C47.0161 24.7918 47.0974 24.7512 47.1787 24.697L47.4227 24.5614C47.5854 24.4801 47.7616 24.3988 47.9378 24.3174C47.7887 24.4394 47.6396 24.5479 47.5041 24.6699L47.3007 24.8596C47.233 24.9274 47.1652 24.9816 47.0974 25.0494C46.9754 25.1849 46.8399 25.3069 46.7314 25.456C46.6772 25.5238 46.623 25.5916 46.5688 25.6729L46.5145 25.7542L43.6138 34.4565C43.6816 34.9038 43.6951 35.2698 43.6951 35.5002C43.6816 35.8933 43.6138 37.2217 43.546 38.4958L46.257 30.3765C46.257 30.3493 46.2299 30.3358 46.2299 30.3087L46.2163 30.268V30.2273L46.2028 30.1596C46.2028 30.1189 46.2028 30.0782 46.1892 30.024C46.1892 29.9427 46.1757 29.8478 46.1757 29.7665C46.1757 29.6038 46.1757 29.4276 46.1892 29.265C46.2163 28.9396 46.257 28.6143 46.3112 28.289C46.4332 27.6519 46.6501 27.0284 46.9483 26.4455C47.0974 26.1609 47.2736 25.8762 47.4498 25.6187C47.6396 25.3612 47.8429 25.1036 48.0598 24.8732L48.6156 23.2195C48.5613 23.2601 48.4936 23.2873 48.4393 23.3279Z" fill="white"/>
<path d="M48.4122 28.3567C48.4529 28.1398 48.5071 27.9365 48.5749 27.7332L47.7209 27.8009L48.2902 30.0375C48.2631 29.4682 48.3038 28.8989 48.4122 28.3567Z" fill="white"/>
<path d="M51.0554 27.5435C51.069 27.7061 51.0825 27.8688 51.1096 28.0314C51.1232 28.0721 51.1232 28.1128 51.1232 28.1399C51.1097 28.4245 50.8521 28.655 50.5675 28.6414C50.2828 28.6278 50.0524 28.3703 50.0659 28.0857C50.0795 27.923 50.093 27.7739 50.1201 27.6112L49.2255 27.679C49.1713 27.9366 49.1306 28.1941 49.1171 28.4381C49.0493 29.3598 49.1849 30.2815 49.4695 31.1491C49.6186 31.5828 49.7948 32.003 50.0117 32.3825C50.0659 32.4774 50.1201 32.5723 50.1879 32.6672C50.215 32.7079 50.2421 32.7621 50.2828 32.8027L50.3777 32.9247C50.4997 33.0874 50.6352 33.2501 50.7708 33.3585C50.7979 33.3856 50.825 33.3992 50.8385 33.4263C51.0961 33.7109 51.069 34.1582 50.7708 34.4158C50.4726 34.6733 50.0388 34.6462 49.7813 34.348V34.3344C49.5102 34.0227 49.3204 33.7109 49.1577 33.3856L51.7738 43.728C52.2483 44.2159 52.7227 44.7175 53.1835 45.219C53.7393 44.5955 54.3086 43.9855 54.8643 43.362C55.1761 42.996 55.5421 42.8062 55.7996 42.6978C56.1792 42.5351 56.518 42.4674 56.8569 42.4674C58.2937 42.4674 59.717 42.4809 61.1403 42.4945C61.6418 42.4945 62.1162 42.63 62.5364 42.874C62.9295 42.6436 63.3633 42.5216 63.797 42.5216C64.6645 42.5351 65.5049 42.5487 66.3453 42.5623L68.6903 26.2286L51.0554 27.5435Z" fill="white"/>
<path d="M57.86 24.5887C57.8871 24.4396 57.9277 24.304 57.9549 24.1549L51.8281 24.5751C51.7874 24.6429 51.7467 24.7107 51.7061 24.7784C51.5163 25.1309 51.3672 25.4833 51.2588 25.8493C51.1503 26.2152 51.0825 26.5812 51.0554 26.9472C51.0554 26.9608 51.0554 26.9743 51.0554 26.9879L57.7786 26.5135C57.738 25.8764 57.7651 25.2257 57.86 24.5887Z" fill="white"/>
<path d="M67.4839 25.4832C67.4568 25.4426 67.4162 25.4019 67.389 25.3477C67.1586 24.9139 66.8875 24.4937 66.5622 24.1142C66.4131 23.938 66.2369 23.7618 66.0742 23.5991L58.2395 24.1278C58.1853 24.2904 58.1175 24.4531 58.0768 24.6293C57.9277 25.2393 57.8329 25.8628 57.7786 26.4999L68.6361 25.7272L68.7445 25.1173C68.7174 25.2799 68.6496 25.429 68.5141 25.551C68.2023 25.8086 67.7415 25.7815 67.4839 25.4832Z" fill="white"/>
<path d="M59.8119 20.7797C60.1372 20.3595 60.5032 19.9528 60.8963 19.5733C61.8451 18.6922 62.9973 17.9738 64.285 17.4587C64.9221 17.2147 65.5727 17.0114 66.2369 16.8894C66.5351 16.8217 66.8604 16.781 67.2671 16.7539C67.6601 16.7268 67.999 16.7268 68.3243 16.7674C68.4599 16.781 68.5819 16.8488 68.6768 16.9572C68.7716 17.0656 68.8123 17.2012 68.7988 17.3367C68.7988 17.3503 68.7988 17.3774 68.7852 17.391C68.731 17.6485 68.5005 17.8383 68.2295 17.8112C68.2023 17.8112 68.1888 17.8112 68.1617 17.7976C67.9041 17.7434 67.6059 17.7027 67.2671 17.6892C66.9824 17.6892 66.6571 17.6756 66.3182 17.7163C65.6947 17.7705 65.0576 17.8789 64.4476 18.0416C63.1599 18.394 61.9942 18.9498 60.9776 19.7088C60.5845 20.0342 60.1779 20.3866 59.8119 20.7797Z" fill="white"/>
<path d="M68.5683 24.5344C68.6903 24.6835 68.7445 24.8597 68.7445 25.0359L69.0156 23.4093L67.511 23.5177C67.8906 23.8159 68.243 24.1548 68.5683 24.5344Z" fill="white"/>
<path d="M68.5005 25.551C68.2023 25.8086 67.7415 25.7815 67.4839 25.4832C67.4568 25.4426 67.4162 25.4019 67.389 25.3477C67.1586 24.9139 66.8875 24.4937 66.5622 24.1142C66.4131 23.938 66.2369 23.7618 66.0742 23.5991L51.8281 24.5751C51.7874 24.6428 51.7467 24.7106 51.7061 24.7784C51.5163 25.1308 51.3672 25.4832 51.2588 25.8492C51.1503 26.2152 51.0825 26.5812 51.0554 26.9472C51.0554 26.9607 51.0554 26.9743 51.0554 26.9878L68.6361 25.7408L68.7445 25.1308C68.7039 25.2799 68.6361 25.429 68.5005 25.551Z" fill="white"/>
<path d="M62.0078 13.7175C63.5801 14.0293 65.166 14.4224 66.4673 15.3577C66.9146 15.6559 67.3213 16.0219 67.6873 16.415C67.9177 16.415 68.1481 16.4014 68.3921 16.415C68.4599 16.415 68.5005 16.4421 68.5683 16.4692C68.1075 15.8185 67.5382 15.2357 66.9011 14.7477C65.5185 13.6633 63.8106 13.2431 62.1704 12.8771C61.33 12.7958 60.4896 12.6331 59.6492 12.6196C58.8088 12.6196 57.9684 12.5925 57.128 12.6196L54.6204 12.8907C53.7935 13.094 52.9531 13.2431 52.1534 13.4871C50.5539 14.0429 48.968 14.7884 47.7345 16.0219C46.5281 17.2825 45.7826 18.9226 45.5793 20.617C45.5386 21.0372 45.5115 21.4574 45.5115 21.8776C45.5386 22.2978 45.5386 22.718 45.6064 23.1382C45.7013 23.965 45.9046 24.7919 46.1892 25.578L46.2163 25.6323L46.2706 25.6187L47.5176 25.3883L46.3248 25.4832C45.9046 23.9108 45.8232 22.2571 46.0943 20.6847C46.379 19.0988 47.1381 17.6349 48.2767 16.5369C50.6623 14.4224 53.9968 13.6362 57.2229 13.5278C58.0362 13.4871 58.8495 13.5007 59.6628 13.4871C60.3947 13.5142 61.1945 13.6498 62.0078 13.7175Z" fill="white"/>
<path d="M69.2732 18.4752C69.3681 18.4752 69.4629 18.4752 69.5578 18.4617C69.4358 18.1228 69.2867 17.7704 69.1241 17.4451C69.0834 17.6619 68.9614 17.8517 68.7852 17.9737C68.8665 18.1364 68.9343 18.3261 69.0021 18.5023C69.097 18.4888 69.1918 18.4752 69.2732 18.4752Z" fill="white"/>
<path d="M69.7205 18.9091C69.5714 18.882 69.4223 18.8549 69.2732 18.8278C69.2325 18.8142 69.1918 18.8142 69.1512 18.8142C69.1783 18.9091 69.2325 18.9904 69.2596 19.0853C69.3274 19.3157 69.3952 19.5462 69.4494 19.7766C69.612 19.8308 69.7747 19.9122 69.9374 19.9664C69.8831 19.6275 69.8289 19.2886 69.734 18.9498C69.7205 18.9226 69.7205 18.9226 69.7205 18.9091Z" fill="white"/>
</svg>
